<svg id="Layer_1" data-name="Layer 1" xmlns="http://www.w3.org/2000/svg" viewBox="0 0 336 267.4"><path d="M293.7,297.6c0-72.3,58.5-131,130.7-131s130.8,58.7,130.8,131S496.7,428.7,424.4,428.7,293.7,370,293.7,297.6Z" transform="translate(-253 -164)" style="fill:#faa74a"/><path d="M291,297.6c0,73.8,59.9,133.7,133.4,133.7s133.5-59.9,133.5-133.7S498,164,424.4,164,291,223.9,291,297.6Zm5.3,0c0-70.7,57.5-128.3,128.1-128.3s128.1,57.6,128.1,128.3S495.1,426,424.4,426,296.3,368.4,296.3,297.6Z" transform="translate(-253 -164)" style="fill:#fff"/><path d="M484.1,213.4l-34.5,17,2.4,11-2.2,1.2a18.7,18.7,0,0,0-16.3-8.3c-11.3.2-17,15.5-17,15.5l-11.2,3.9-4.6-17.5L367,246.8l6.1,22.4s-11.3-2.2-16.1,1.9l-9.9,9.4s-10.9-27.9-41.6-27.2-47.1,17-48,48.1,10.7,63.7,46.5,66.2,44.4-29.2,44.4-29.2,6.6,22.8,29.2,23.1S410,350.2,410,350.2l14.3-4.4,35.7-.2V311.4a40.1,40.1,0,0,0,29.4,11.7c18.4-.4,23.1-4.1,23.1-4.1V304.7s6.9,8,20.8,9.5,40.6,4.4,40.6,4.4l10-80.8L538,231.7s-28.2-5.9-32.6,25.5h-4.1l-1.5-20.1-9.1,1.6Z" transform="translate(-253 -164)" style="fill:#fff;fill-rule:evenodd"/><path d="M444.5,227.9l1.1,5.1a22.5,22.5,0,0,0-12.1-3.2c-12,.2-18.3,11.9-20.3,16.4l-4.8,1.6-4.5-17.3-42.4,13.3,5.5,20.3c-4.3-.1-9.5.6-12.9,3.6l-5.8,5.4c-5.4-8.8-18.4-24.9-42.9-24.3-33.3.7-51.5,18.8-52.4,52.5s11.9,68.1,50.7,70.8c26,1.8,38.9-12.9,44.8-23.2,5.2,8.3,14.5,17,29.1,17.1,21.5.2,32.1-9.1,34.8-11.8l12.6-3.8,39.5-.3V320.7a44.5,44.5,0,0,0,25,7c19-.5,24.8-4.4,25.8-5.1l1.7-1.4v-7.6a39.7,39.7,0,0,0,15.8,5.1l45.1,4.9,11-89.7-50.3-6.7c-.2-.1-13.5-2.7-24.5,5.1a29.4,29.4,0,0,0-9.3,11.7c-.2-3.3-.9-12.2-.9-12.2l-9.9,1.7c-1.4-5.7-6.9-26.7-6.9-26.7Zm36.7-8,6.1,23.9,8.3-1.4c.5,5.6,1.5,19.3,1.5,19.3h12.3l.5-3.9c1.2-8.4,4.3-14.5,9.4-18.1,7.7-5.5,17.7-3.6,17.8-3.6l41.7,5.6c-.9,7.5-7.9,64.5-8.8,71.9l-36.2-3.9c-11.8-1.3-17.7-7.7-17.9-8l-8-8.9v23.3c-2.5.9-7.8,2.3-18.6,2.5a35.7,35.7,0,0,1-25.9-10.2l-7.9-8.7v41.4l-31.8.2-16.2,4.9-.9,1c-.3.4-8.9,9.9-28.9,9.7s-24.8-18.9-25-19.7l-4.5-15.1L344,337.2c-.3,1.2-8.2,28-39.7,25.8-40.7-2.8-42.6-47.8-42.2-61.5.8-28.8,15-43.1,43.5-43.7s36.8,23.3,37.2,24.3l2.5,6.2,14.8-13.9c1.9-1.6,8.3-1.5,12.1-.8l7.1,1.4-6.8-25.2,25-7.8,4.6,17.6,17.9-6.2.8-2c0-.1,4.9-12.4,12.8-12.6a14.6,14.6,0,0,1,12.3,6.1l2.3,3.9,3.9-2.3,5-2.9-2.3-10.7Z" transform="translate(-253 -164)" style="fill:#fff;fill-rule:evenodd"/><path d="M484.1,213.4l-34.5,17,2.4,11-2.2,1.2a18.7,18.7,0,0,0-16.3-8.3c-11.3.2-17,15.5-17,15.5l-11.2,3.9-4.6-17.5L367,246.8l6.1,22.4s-11.3-2.2-16.1,1.9l-9.9,9.4s-10.9-27.9-41.6-27.2-47.1,17-48,48.1,10.7,63.7,46.5,66.2,44.4-29.2,44.4-29.2,6.6,22.8,29.2,23.1S410,350.2,410,350.2l14.3-4.4,35.7-.2V311.4a40.1,40.1,0,0,0,29.4,11.7c18.4-.4,23.1-4.1,23.1-4.1V304.7s6.9,8,20.8,9.5,40.6,4.4,40.6,4.4l10-80.8L538,231.7s-28.2-5.9-32.6,25.5h-4.1l-1.5-20.1-9.1,1.6Z" transform="translate(-253 -164)" style="fill:#272a6e;fill-rule:evenodd"/><path d="M572,247.8l-31.1-4.1s-26.2-8.1-31,28.6V281s1.9,22.3,26.2,24.9l29.5,2.9Zm-18,10.1-3.5,34.2-14.4-.2s-13.3-2.4-11.9-18.2,11.2-17.2,11.2-17.2Zm-77.7-28.5L460,237l17.5,67s2,9.4,11.8,9.2,14.2-3.7,14.2-3.7l.5-14.2s-8.2,4.6-11-.9l-8-31.9,8.7-3-1.4-14.2-10.5,2.5ZM424,251.9a10.6,10.6,0,1,1,10.6,10.6A10.6,10.6,0,0,1,424,251.9Zm4.2,17h17.4v64.7H428.2Zm-8.5,67-17.5,6-2.8-8.4s-2.3,15.8-20.4,15.3-24.9-25.4-24.9-25.4-10.8-33.8,11.5-41c0,0,9.4-6.6,21.8,1l-7.7-28.8,14.9-4.7Zm-52.9-17.7c-2.9-11.5.4-22.4,7.3-24.5s14.6,5.7,17.4,17.3-.4,22.4-7.2,24.4S369.6,329.7,366.8,318.2Zm-47-25.1,10.5-12.2s-3.1-14.8-25-15.6-37.2,17.8-35.7,40.5,7.8,49.6,37.9,52.2c0,0,30.2-1.3,32.2-27.3l-13.8-10s-.5,20.9-17.3,20.9-18-14.1-18-14.1l20.5-7.5-4.4-18.2L287,308s-3.8-26,16.5-26.3c0,0,12-2.1,15.1,9.6Z" transform="translate(-253 -164)" style="fill:#fff200;fill-rule:evenodd"/><path d="M522.5,245.5c-7.2,4.7-11.8,13.7-13.5,26.7V281c0,.3,2.2,23.2,27,25.8l30.5,3.1,6.6-62.9L541,242.7C540.8,242.7,531.3,239.8,522.5,245.5Zm13.7,59.4C513,302.5,511,281.8,510.9,281v-8.7c1.6-12.3,5.9-20.8,12.7-25.2s16.9-2.5,17-2.5l30.4,4c-.2,1.8-6,57.4-6.2,59.2Z" transform="translate(-253 -164)" style="fill:#fff200;fill-rule:evenodd"/><path d="M523.2,273.6c-1.4,16.5,12.6,19.2,12.7,19.2l14.6.3h.8L555,257l-19.6-1.4C534.8,255.6,524.6,257.2,523.2,273.6Zm12.9,17.3c-.4-.1-11.1-2.2-11.1-14.9,0-.7.1-1.5.1-2.2,1.3-14.8,10-16.3,10.4-16.3l17.4,1.3c-.2,1.8-3.1,30.7-3.3,32.3Z" transform="translate(-253 -164)" style="fill:#fff200;fill-rule:evenodd"/><path d="M458.9,236.5l17.6,67.8s2.4,10.1,12.9,9.8,14.5-3.7,14.7-3.8.8-15,.8-15v-1.6l-1.5.8s-4.4,2.4-7.4,1.4l-2.2-1.9c0-.1-6.7-26.7-7.8-30.9l8.6-2.9-1.5-16.1-10.7,2.6-5.6-18.6Zm16.8-5.7c.6,1.8,5.4,18.1,5.4,18.1l10.4-2.4c.2,1.7,1.1,11.1,1.2,12.3l-8.8,3.1,8.2,32.7c.1.2,3.4,3.2,3.4,3.2,2.8.8,5.8-.3,7.5-1-.1,2.4-.4,12.5-.4,12.6s-4.4,2.6-13.3,2.8-10.8-8-10.9-8.4l-17.3-66.3Z" transform="translate(-253 -164)" style="fill:#fff200;fill-rule:evenodd"/><path d="M423,251.9a11.6,11.6,0,1,0,11.6-11.6A11.6,11.6,0,0,0,423,251.9Zm1.9,0a9.7,9.7,0,1,1,19.4,0,9.7,9.7,0,1,1-19.4,0Z" transform="translate(-253 -164)" style="fill:#fff200;fill-rule:evenodd"/><path d="M427.3,267.9v66.7h19.3V267.9Zm17.4,1.9v62.9H429.2V269.8Z" transform="translate(-253 -164)" style="fill:#fff200;fill-rule:evenodd"/><path d="M378.5,254l7.5,27.8c-11.8-6.1-20.6-.5-20.9-.2-22.7,7.3-12,41.7-11.9,42.1s7.1,25.6,25.7,26.1c13.8.4,18.8-8.3,20.5-13.1.9,2.5,2.2,6.4,2.2,6.4l19.2-6.6-25.6-87.9Zm15.4-2.9c.6,1.8,24.1,82.5,24.6,84.2l-15.7,5.4c-.5-1.4-2.5-7.5-2.5-7.5l-1.9.2c-.1.6-2.4,14.9-19.4,14.5s-23.9-24.5-23.9-24.7-10.3-33.1,10.8-39.9c.6-.4,9.3-6.3,21,1l2.1,1.2s-7.7-28.6-8.2-30.2Z" transform="translate(-253 -164)" style="fill:#fff200;fill-rule:evenodd"/><path d="M373.8,292.8c-7.3,2.2-10.9,13.7-8,25.6h0c1.9,7.7,6,13.9,10.9,16.8a10,10,0,0,0,7.8,1.2c7.3-2.2,10.9-13.7,8-25.7-1.9-7.6-5.9-13.8-10.9-16.7A10,10,0,0,0,373.8,292.8Zm.5,1.9a7.9,7.9,0,0,1,6.4,1c4.4,2.5,8.2,8.5,9.9,15.5,2.7,11-.3,21.5-6.6,23.3a7.9,7.9,0,0,1-6.4-1c-4.4-2.5-8.2-8.5-9.9-15.5h0C365,307,368,296.5,374.3,294.7Z" transform="translate(-253 -164)" style="fill:#fff200;fill-rule:evenodd"/><path d="M279.3,274.7c-7.5,7.8-11.4,19.2-10.7,31.2,2.2,33.6,14.9,51,38.8,53,.4,0,31.2-1.6,33.3-28.1v-.5L325,318.9v1.8c0,.8-.7,20-16.4,20s-16.6-10.6-16.9-12.6l20.5-7.5-4.8-20-19.6,6.2a33.3,33.3,0,0,1-.1-3.5c0-4.5.7-11.3,4.6-15.9,2.6-3.1,6.4-4.7,11.2-4.8.6-.1,11.3-1.8,14.1,9l1.4,2.1.7,1L331,281.6c.2-1-3.2-16.5-25.7-17.2A33.9,33.9,0,0,0,279.3,274.7Zm-8.8,31.1c-.7-11.5,3-22.4,10.2-29.8a32.3,32.3,0,0,1,24.6-9.7c20.7.7,23.9,14.1,24.1,14.8s-7.6,8.2-9.5,10.5l-.6-.8c-3.1-12.2-15.9-10.1-16-10.1a16.3,16.3,0,0,0-12.5,5.5c-6.7,7.9-4.9,21.4-4.8,22l.2,1.1,19.9-6.2c.4,1.6,3.5,14.9,3.9,16.3l-20.4,7.4v.7c.1.2,1.4,15.1,19,15.1,14.7,0,17.6-15.1,18.1-20.1l12,8.6c-2.3,24.3-30.1,25.8-31.3,25.9C277.1,354.4,271.9,326.5,270.5,305.8Z" transform="translate(-253 -164)" style="fill:#fff200;fill-rule:evenodd"/></svg>