<?xml version="1.0" encoding="utf-8"?>
<!-- Generator: Adobe Illustrator 22.0.1, SVG Export Plug-In . SVG Version: 6.00 Build 0)  -->
<svg version="1.1" id="Layer_1" xmlns="http://www.w3.org/2000/svg" xmlns:xlink="http://www.w3.org/1999/xlink" x="0px" y="0px"
	 viewBox="0 0 1000 1000" style="enable-background:new 0 0 1000 1000;" xml:space="preserve">
<style type="text/css">
	.st0{fill-rule:evenodd;clip-rule:evenodd;fill:#99C345;}
	.st1{clip-path:url(#SVGID_2_);fill-rule:evenodd;clip-rule:evenodd;fill:#7AB843;}
	.st2{fill-rule:evenodd;clip-rule:evenodd;fill:#FFFFFF;}
	.st3{fill-rule:evenodd;clip-rule:evenodd;fill:#378738;}
</style>
<path class="st0" d="M113.4,243.2c0-16.3,4.6-30,17.6-35.3l333.7-90.7c0,0,13.1-4.1,21.7-4.3c8.6-0.1,21.7,3.4,21.7,3.4l363.2,91.2
	c5.8,1.7,28.8,6.1,28.8,35.6v516.9c0,26.8-10.7,29.3-17,31.2L508.1,894.7c0,0-13.1,3.8-21.7,3.8c-8.6-0.1-21.7-4.1-21.7-4.1
	L128.3,773.3c-5.8-2.1-14.9-8.5-14.9-22.7V243.2z"/>
<g>
	<defs>
		<path id="SVGID_1_" d="M486.4,113c-8.6,0.2-21.7,4.3-21.7,4.3L131,207.9c-13,5.3-17.6,19-17.6,35.3v507.4
			c0,14.2,9.2,20.7,14.9,22.7l336.4,121.1c0,0,13.1,4,21.7,4.1c8.6,0.1,21.7-3.7,21.7-3.7l375.1-103.5c6.3-1.9,17-4.4,17-31.2V243.2
			c0-29.5-23.1-33.9-28.8-35.6l-363.2-91.2c0,0-12.6-3.4-21.1-3.4H486.4z"/>
	</defs>
	<clipPath id="SVGID_2_">
		<use xlink:href="#SVGID_1_"  style="overflow:visible;"/>
	</clipPath>
	<path class="st1" d="M504.3,115.8L867.5,207c5.7,1.7,28.8,6.1,28.8,35.6v516.9c0,26.8-10.7,29.3-16.9,31.2L504.3,894.1L504.3,115.8
		z"/>
</g>
<path class="st2" d="M638.4,217.8L812,253.4c0,0,28.5,5.8,28.5,31.9v174.3c0,0,1.7,29.8-22.4,40c-19,8.1,22.8-5.5,23.1,32.6
	c0.4,38.3,0,180.4,0,180.4s0,29.2-21.7,37.3c-21.7,8.1-210.9,45.5-210.9,45.5s-32.9,7.5-32.9-50.9c0-47.8,20-62.7,43.8-66.2
	c28.4-4,148.5-18,148.5-18s7.5-0.3,7.5-12.2v-79c0,0,1-12.5-6.1-12.9c-8.1-0.4-107.2,1.7-107.2,1.7s-33.2-0.3-33.2-55.6
	c0-39.3,19.7-52.9,42.1-53.6c22.4-0.7,99.7,1.4,100.4,1.4c0.7,0,4.7-0.7,4.7-6.1v-90.6c0,0,0-6.4-4.1-7.1
	c-6.2-1.1-162.8-18.3-162.8-18.3s-36.6-5.1-36.6-62.7c0-40.7,19.3-54.6,42.4-51.2C638,217.4,638.4,217.8,638.4,217.8"/>
<path class="st3" d="M771.6,450.1c0,0,4.5-0.4,4.5-6.1v-90.7c0,0,0-6.5-4.1-7.1c-6.1-1-162.8-18.3-162.8-18.3s-36.6-5.1-36.6-62.7
	c0-22.6,6-36.9,15.2-44.6c-4.4,8.2-7,19.5-7,34.4c0,57.7,36.6,62.7,36.6,62.7S774,334.9,780.2,336c4.1,0.7,4.1,7.1,4.1,7.1v102.1
	c0,5.4-4.1,5-4.8,5L771.6,450.1z"/>
<path class="st3" d="M768,660.4c0.1-0.1,7.4-0.4,7.4-12.4v-79c0,0,1-12.6-6.1-12.9c-8.1-0.4-107.2,1.7-107.2,1.7
	s-33.2-0.3-33.2-55.6c0-21.9,6.1-35.9,15.5-44c-4.6,8.2-7.3,19.2-7.3,33.9c0,55.3,33.2,55.6,33.2,55.6s99.1-2.1,107.2-1.7
	c7.1,0.3,6.1,12.9,6.1,12.9v88.3c0,10.1-7.4,12-7.4,12L768,660.4z"/>
<path class="st3" d="M835.6,735c-3.2,6.1-8.2,11.7-16.1,14.7c-21.7,8.2-210.9,45.5-210.9,45.5s-32.9,7.5-32.9-50.9
	c0-28.3,7-45,17.6-54.7c-5.9,10.1-9.5,24.4-9.5,44.6c0,58.3,32.9,50.9,32.9,50.9s189.2-37.3,211-45.5
	C830.7,738.4,833.3,736.9,835.6,735"/>
<path class="st2" d="M433.8,130.8c0,0,47-13.7,51.7-14.1c7.1-0.6,10.2,2.6,10.2,6.6v750.1c0,0-8.6-736.4-12.5-741.1
	c-3.9-4.7-14.1-3.1-20.4-3.1C456.5,129.2,433.8,130.8,433.8,130.8"/>
<path class="st3" d="M828.4,803c0,0,47.5-12.8,52.4-14.1c6.8-1.9,12.8-10.4,12.8-14.4c0-40.7,0-542.8,0-542.8s-11,524.5-12.5,533.8
	c-1,6-8,11.8-13.3,15.2C862.3,784.2,828.4,803,828.4,803"/>
<path class="st2" d="M180.9,782.7c0,0-47.5-12.8-52.4-14.1c-6.8-1.8-12.8-10.4-12.8-14.4c0-40.7,0-471.6,0-471.6
	s10.9,453.4,12.5,462.6c1,6,8.1,11.8,13.3,15.2C147.1,763.9,180.9,782.7,180.9,782.7"/>
<path class="st3" d="M566.9,871.5c0,0-47,13.7-51.6,14.1c-7.1,0.6-10.2-2.6-10.2-6.7V551c0,0,8.6,314.3,12.6,319
	c3.9,4.7,14.1,3.1,20.3,3.1C544.2,873.1,566.9,871.5,566.9,871.5"/>
<path class="st2" d="M140.2,461.4c-0.8-0.4-1.4-1.1-0.7-2.2c0.5-0.7,1.3-0.6,1.3-0.6h20.3c0,0,4,0.2,6.2,1.7
	c2.3,1.5,3.5,3.2,4.1,5.2c0.6,2,0.5,5.1,0.5,5.1l-2.3,27.1l-3.3,36.4c0,0-0.3,3.7,1.1,6.1c1.2,2.2,3.5,3.4,5.1,4
	c1.6,0.6,5.8,1.4,5.8,1.4s1.1,0.4,1.1,1.1c0,0.8-0.2,1.1-0.9,1.6c-0.8,0.5-1.5,0.5-1.5,0.5h-21.2c0,0-3.4,0.1-6.7-3
	c-2.8-2.7-2.8-7-2.8-7l0.1-4.1l5.8-61.2c0,0,0-3.6-0.8-5.5c-1-2.1-1.8-3-4.3-4.1C145.1,462.9,140.2,461.4,140.2,461.4"/>
<path class="st2" d="M182.2,461.4c-0.8-0.4-1.4-1.1-0.7-2.2c0.5-0.7,1.3-0.6,1.3-0.6h20.3c0,0,4,0.2,6.2,1.7s3.5,3.2,4.1,5.2
	c0.7,2,0.5,5.1,0.5,5.1l-2.3,27.1l-3.3,36.4c0,0-0.3,3.7,1.1,6.1c1.2,2.2,3.5,3.4,5.1,4c1.6,0.6,5.8,1.4,5.8,1.4s1.2,0.4,1.2,1.1
	s-0.3,1.1-1.1,1.5c-0.7,0.5-1.4,0.6-1.4,0.6h-21.2c0,0-3.4,0.1-6.7-3c-2.8-2.7-2.8-7-2.8-7l0.1-4.1l5.8-61.2c0,0-0.2-3.2-1.1-5.1
	c-1-2.2-2.3-3.6-4-4.5C187.2,462.7,182.2,461.4,182.2,461.4"/>
<path class="st2" d="M223.1,461.3c-0.7-0.4-1.4-1.1-0.7-2.2c0.5-0.7,1.3-0.6,1.3-0.6H244c0,0,4,0.2,6.2,1.7c2.3,1.5,3.5,3.2,4.1,5.2
	c0.7,2,0.5,5.1,0.5,5.1l-2.3,27.1l-3.3,36.4c0,0-0.3,3.7,1.1,6.1c1.2,2.2,3.3,3.4,4.9,4c1.6,0.6,6.1,1.4,6.1,1.4s1.1,0.4,1.1,1.2
	c0,0.7-0.2,1.2-0.9,1.7c-0.7,0.5-1.5,0.4-1.5,0.4h-21.2c0,0-3.4,0.1-6.7-3c-2.8-2.7-2.8-7-2.8-7l0.1-4.2l5.7-61.2
	c0,0-0.2-3.2-1.1-5.1c-1-2.2-2.3-3.6-4-4.6C228.1,462.6,223.1,461.3,223.1,461.3"/>
<path class="st2" d="M265.1,434.7c-0.7-0.6-1-1-0.7-1.9c0.4-1.1,1.9-1,1.9-1l20.5-0.1c0,0,5.6,0.1,8.6,2.7c3,2.6,3.5,4.8,3.6,6.8
	c0.1,2-1.7,23.8-1.7,23.8s-0.2,1.3,0.2,1.3c0.4,0,3.2-1.5,5.7-2.5c2.5-1,8.6-2.8,14-2.5c5.4,0.4,12.5,1,20.7,6.8
	c8.1,5.8,10.8,12.2,13,18.7c2.2,6.5,2.1,14.6,2.1,14.6s0.2,8.4-2.3,17.1c-2.4,8.7-6.5,13.9-6.5,13.9s-2.7,4.5-8.7,9.4
	c-6,4.9-13.1,7.3-13.1,7.3s-7.3,2.5-15.2,2.4c-7.9-0.1-13.9-1.7-19.6-4.3c-6.4-2.9-10.5-8.7-10.5-8.7s-4.1-5.6-4.7-7.7
	c-0.6-2.2-0.3-3.1,0.1-3.6c0.5-0.5,1.1-0.2,1.4,0.1c0.3,0.3,3.2,3.1,4.7,4.3c1.5,1.1,3.9,3.2,8.2,4.8c4.3,1.6,8.4,2.7,12.9,3.1
	c4.5,0.4,11.1-0.7,15.7-3.1c4.6-2.5,9.5-7.2,11.1-9.7c1.7-2.6,4.6-6.4,6.6-15.3c2-8.9,1.3-13.9,1.3-13.9s-0.1-7.2-3.9-15.7
	c-4.3-9.8-13.6-11.7-13.6-11.7s-4.2-1-8.5-0.4c-3.8,0.6-8.2,3.4-9.9,5.8c-1.7,2.4-1.9,4.1-2.4,7.9c-0.2,1.7-2.8,27.6-2.8,27.6
	s-0.3,5.6,0.1,7.5c0.4,2,1.5,5.2,2.8,6.4c1.3,1.2,2.5,1.4,2.4,2.2s-1,1.8-2.5,2.1c-1.4,0.3-4.3,0.4-8.1-0.6c-3.8-1-7.7-2.9-10.8-7.4
	c-3.1-4.4-4.2-8.1-4.6-12.8c-0.5-4.7,2.5-33.5,2.5-33.5l2.9-29.7c0,0-0.1-3.6-2.8-6.2c-2.8-2.6-7.1-3.4-7.1-3.4
	S265.8,435.2,265.1,434.7"/>
<path class="st2" d="M416.6,466c0,0,4.4-0.8,8.1-0.6c3.7,0.2,7.4,0.9,9.4,1.8c2,0.8,3.7,1.4,4.3,1.7c0.7,0.3,1.9,0.3,2.1-0.8
	c0.2-1-0.8-1.9-2.3-3c-1.5-1.1-7.9-5.2-13.4-6.5c-5.5-1.3-9.8-1.6-15.3-1.3c-5.6,0.3-16.2,2.8-22.6,6.6
	c-6.4,3.8-14.8,11.5-17.2,15.7c-2.5,4.5-5.8,9.9-6.7,20.8c-0.6,8.7,0.4,17.1,3.7,23.5c3.9,7.5,10,14.9,16.6,18.7
	c6.6,3.8,16,7.4,26,7.3c10-0.2,20.2-4.1,25.2-8.2c5-4.1,5.1-4.6,5.4-5.7c0.4-1.6-0.6-2-1.3-2c-0.7,0-1.3,0.5-3.6,1.6
	c-2.3,1.1-6.8,2.5-10.1,3c-3.3,0.5-9.1,1-16.1-1.4c-7-2.4-12.9-7.8-12.9-7.8s-5.5-5.5-7.9-11.9c-2.4-6.4-2.2-15.3-2.2-15.3
	s0.2-10.8,5.2-18.2c5-7.4,8.5-10.2,14.1-13.6C410.8,467.1,416.6,466,416.6,466"/>
</svg>
