<?xml version="1.0" encoding="utf-8"?>
<!-- Generator: Adobe Illustrator 22.0.1, SVG Export Plug-In . SVG Version: 6.00 Build 0)  -->
<svg version="1.1" id="Layer_1" xmlns="http://www.w3.org/2000/svg" xmlns:xlink="http://www.w3.org/1999/xlink" x="0px" y="0px"
	 viewBox="0 0 1000 1000" style="enable-background:new 0 0 1000 1000;" xml:space="preserve">
<style type="text/css">
	.st0{fill:#0078A9;}
	.st1{fill:#FFFFFF;}
	.st2{fill:#C23C40;}
	.st3{fill:#0077A6;}
</style>
<g>
	<g>
		<g>
			<path class="st0" d="M836.6,680.5c0-16.6-7.4-30.9-23.6-30.9c-16.2,0-23.6,14.3-23.6,30.9c0,16.8,7.4,31.1,23.6,31.1l3.3-0.2v0
				c-1.3,5.7-3.9,10.6-9.2,10.6h-2.4h-16.6v4.6v16.1l16.6-0.1c11.6,0,31.9-3.5,31.9-42.8c0.2-7.4,0.2-13.5,0-18.7L836.6,680.5z
				 M813,695c-4.6,0-5.3-8.3-5.3-14.5c0-6,0.7-14.4,5.3-14.4c4.5,0,5.1,8.4,5.1,14.4C818.1,686.7,817.5,695,813,695"/>
			<path class="st0" d="M868,649.6h-13.1v21.1h16.7c8.8,0,11,2.4,11,11.6c0,8-2.4,12.7-11.1,12.9h-29.1l0,20.5h26.7
				c4.2,0,32.1,1.9,32.1-34.4C901.2,654.3,887.4,648.3,868,649.6"/>
			<path class="st0" d="M556.6,701c0,8-1.5,21-10.2,21.1h-31.3v20.6l28.9-0.1c11.6,0,32-3.5,32-42.8v-39.4h-19.4V701z"/>
			<path class="st0" d="M566.2,628.6c-5.9,0-11,5.9-11,12.9c0,7.2,5.1,12.9,11.2,12.9c6,0,10.8-5.9,10.8-13.1
				C577.3,634.1,572.3,628.6,566.2,628.6"/>
			<path class="st0" d="M648.2,655.4c6.2,0,11-6,11-13.1c0-7.3-5-12.8-11.1-12.8c-6,0-10.8,5.9-10.8,12.9
				C637.2,649.7,642.1,655.4,648.2,655.4"/>
			<path class="st0" d="M757.6,653.4c-16.2,0-23.6,14.4-23.6,31.1c0,2.9,0.2,5.8,0.8,8.6H708v-32.7h-18.7v24.4c0,6.6-4,8.3-6.4,8.3
				h-25.3v-32.7h-18.8h0v24.4c0,6.6-4,8.3-6.4,8.6H628c0.1-4.7,0-8.7-0.1-12.3l0-0.7c0-16.6-7.5-30.9-23.7-30.9
				c-16.2,0-23.6,14.3-23.6,30.9c0,16.8,7.4,31.1,23.6,31.1l3.3-0.2v0c-1.3,5.7-3.8,10.6-9.2,10.6h-2.5h-16.5v4.6v16.1l16.5-0.1
				c9.9,0,26-2.5,30.6-27.1h12.2h18.8h100.6c15.9-0.3,23.2-14.4,23.2-31C781.3,667.8,774,653.4,757.6,653.4 M604.2,695
				c-4.5,0-5.2-8.3-5.2-14.5c0-6,0.7-14.4,5.2-14.4c4.6,0,5.2,8.4,5.2,14.4C609.4,686.7,608.7,695,604.2,695 M757.6,698.9
				c-4.5,0-5.1-8.3-5.1-14.4c0-6.2,0.6-14.5,5.1-14.5c4.6,0,5.2,8.3,5.2,14.5C762.9,690.6,762.2,698.9,757.6,698.9"/>
			<path class="st0" d="M697,721.6c-6.1,0-10.9,6-10.9,13.2c0,7.2,5.1,12.7,11.1,12.7c6,0,11-5.9,11-12.9
				C708.2,727.4,703.1,721.6,697,721.6"/>
			<path class="st0" d="M674.4,721.6c-6.2,0-11,6-11,13.2c0,7.2,5.1,12.7,11.1,12.7c6,0,10.9-5.9,10.9-12.9
				C685.4,727.4,680.5,721.6,674.4,721.6"/>
			<path class="st0" d="M151.7,654.4c6.1,0,11-5.9,11-13.1c0-7.2-5.1-12.7-11.1-12.7c-6,0-10.9,5.9-10.9,12.9
				C140.6,648.6,145.6,654.4,151.7,654.4"/>
			<rect x="100.3" y="624.4" class="st0" width="18.8" height="68.8"/>
			<path class="st0" d="M312.7,660.4h-18.8v22.8c-0.5,6.3-3.3,9.8-10.8,9.9h-20.8v-32.7h-18.9v24.4c0,6.6-4,8.3-6.4,8.3h-25.3v-32.7
				h-18.8v24.4c0,6.6-3.9,8.2-6.3,8.3h-25.5v-32.7h-19.3v40.5c0,8-1.6,21-10.2,21.1h-31.4v20.6l28.9-0.1c9.8,0,25.9-2.5,30.6-27.1
				h40.8h58v0h22.2c4.1,0,32,1.5,32-34.9v-0.1V660.4z"/>
			<path class="st0" d="M191,654.4c6.2,0,11-5.9,11-13.1c0-7.2-5.1-12.7-11.1-12.7c-6,0-11,5.9-11,12.9
				C179.9,648.6,185,654.4,191,654.4"/>
			<path class="st0" d="M213.6,654.4c6.2,0,11-5.9,11-13.1c0-7.2-5.1-12.7-11.2-12.7c-5.9,0-10.8,5.9-10.8,12.9
				C202.6,648.6,207.6,654.4,213.6,654.4"/>
			<path class="st0" d="M251.2,721.6c-6.2,0-11,6-11,13.2c0,7.2,5.1,12.7,11.1,12.7c6,0,10.9-5.9,10.9-12.9
				C262.3,727.4,257.3,721.6,251.2,721.6"/>
			<path class="st0" d="M228.6,721.6c-6.2,0-11,6-11,13.2c0,7.2,5.1,12.7,11.1,12.7c6,0,10.8-5.9,10.8-12.9
				C239.6,727.4,234.6,721.6,228.6,721.6"/>
			<path class="st0" d="M290.5,721.6c-6.1,0-10.8,6-10.8,13.2c0,7.2,5.1,12.7,11,12.7c6,0,11-5.9,11-12.9
				C301.6,727.4,296.6,721.6,290.5,721.6"/>
		</g>
		<g>
			<path class="st1" d="M659.5,512c7.6-7.6,7.6-20,0-27.6c0,0,0,0,0,0L435.1,260.1c-7.6-7.6-20-7.6-27.6,0c0,0,0,0,0,0L187.1,480.5
				c-7.6,7.6-7.6,20,0,27.6c0,0,0,0,0,0l224.4,224.4c7.6,7.6,20,7.6,27.6,0c0,0,0,0,0,0L659.5,512L659.5,512z"/>
			<path class="st2" d="M418.4,492.5L311,599.8c-5.7,5.7-15,5.7-20.7,0l-94.2-94.2c-5.7-5.7-5.7-15,0-20.7l107.4-107.4L418.4,492.5
				L418.4,492.5z M310.3,370.6l100.1-100.1c5.7-5.7,15-5.7,20.7,0c0,0,0,0,0,0l94.2,94.2c5.7,5.7,5.7,15,0,20.7L425.3,485.5
				L310.3,370.6z"/>
			<path class="st3" d="M650.6,510.6c5.7-5.7,5.7-15,0-20.7c0,0,0,0,0,0l-97.4-97.4c-5.7-5.7-15-5.7-20.7,0c0,0,0,0,0,0L318,607
				c-5.7,5.7-5.7,15,0,20.7c0,0,0,0,0,0l97.4,97.4c5.7,5.7,15,5.7,20.7,0L650.6,510.6L650.6,510.6z"/>
			<path class="st1" d="M332.8,621.6l11.4-11.4c10.3-10.3,24-12.6,38.1,1.6c11.5,11.5,12.2,25.2,3.2,34.2l-14.2,14.2L332.8,621.6
				L332.8,621.6z M371,637.4l0.7-0.7c3.7-3.7,4.4-8.7-0.6-13.8c-5.4-5.4-10.2-5.2-14.3-1.1l-0.7,0.7L371,637.4z M416.3,588.7
				c9,9,7.5,20.2,0.7,27c-6.8,6.8-18,8.3-27-0.7c-9.5-9.5-8.5-20.5-1.3-27.7C395.8,580.2,406.8,579.2,416.3,588.7z M400,604.6
				c2.1,2.1,5,2.4,6.7,0.8c1.6-1.6,1.4-4.5-0.8-6.7c-2.2-2.2-5.2-2.8-6.9-1C397.2,599.5,397.8,602.4,400,604.6z M420.6,566.3
				l0.3-0.3c-2.5-4.2-1.9-8.9,0.9-11.7c3.1-3.1,7.4-3.2,12-0.4l0.2-0.2c-2.6-5-2.5-9,0.8-12.4c5.2-5.2,12.5-2.5,18.4,3.4l16.9,16.9
				l-10.2,10.2l-13.4-13.4c-1.6-1.6-3.6-3.6-5.2-2.1c-1.5,1.5,0.5,3.6,2.1,5.1l13.4,13.4L446.6,585l-13.4-13.4
				c-1.6-1.6-3.6-3.6-5.2-2.1c-1.5,1.5,0.5,3.6,2.1,5.1l13.4,13.4l-10.2,10.2l-27.1-27.1l10-10L420.6,566.3L420.6,566.3z
				 M447.9,529.3l10.5-10.6l27.1,27.1l-10.5,10.6L447.9,529.3z M450.6,509.8c4.4,4.4,3.6,9.2,0.6,12.2c-3,3-7.7,3.9-12.2-0.6
				c-3.9-3.9-3.8-8.8-0.5-12.1C441.8,506,446.7,505.9,450.6,509.8z M477.5,508.4l0.2-0.2c-0.9-5-1.4-8.6,2-12
				c5.4-5.4,12.6-2.5,18.6,3.5l16.7,16.7L504.5,527l-13.2-13.2c-1.6-1.6-3.8-3.8-5.6-2c-1.8,1.8,0.5,4,2.1,5.6l13.2,13.2l-10.5,10.5
				L463.3,514l10.3-10.3L477.5,508.4L477.5,508.4z M531.6,473.4c9,9,7.5,20.2,0.7,27c-6.8,6.8-18,8.3-27-0.7
				c-9.5-9.5-8.5-20.5-1.3-27.7C511.1,464.9,522.1,463.9,531.6,473.4z M515.3,489.3c2.2,2.1,5,2.4,6.7,0.8c1.6-1.6,1.4-4.5-0.8-6.7
				c-2.2-2.2-5.2-2.8-6.9-1C512.5,484.1,513.1,487.1,515.3,489.3L515.3,489.3z M526.2,461.4L511.5,438l10.6-10.6l11.4,26.7
				L526.2,461.4L526.2,461.4z M549.1,461.2l1.2-0.1c2.6-0.3,6.1-1.1,7.9-2.9c0.7-0.7,1.1-2,0.1-3c-1.5-1.5-2.8-0.3-3.8,0.4
				c-4.1,2.9-9.2,4.4-14.3-0.7c-6.8-6.8-4-15,0.6-19.7c2.7-2.7,6.7-5.4,10.7-6.1l4.9,10.1c-2.6,0.1-5.4,0.9-7.1,2.6
				c-0.7,0.7-1.3,1.8-0.3,2.7c1.3,1.3,2.6,0.3,4.4-0.9c4.5-3,9.2-4.4,14.7,1c7.1,7.1,4.4,15.6-0.5,20.5c-3.4,3.4-8.1,5.5-13,6.9
				L549.1,461.2L549.1,461.2z M385.4,673.1l14.2-14.2c7.2-7.2,17.1-7.9,26.7,1.6c7.9,7.9,8.9,16.7,2.6,23l-5.7,5.7l11.6,11.6
				L424,711.6L385.4,673.1z M413.4,679.5l1.1-1.1c2-2,3.7-4.5,0.6-7.6c-3-3-5.5-0.9-7.3,1l-1.1,1.1L413.4,679.5L413.4,679.5z
				 M427.6,653.7l10.5-10.5l27.1,27.1l-10.5,10.6L427.6,653.7z M430.3,634.2c4.4,4.4,3.6,9.2,0.6,12.2c-3,3-7.8,3.9-12.2-0.6
				c-3.9-3.9-3.8-8.8-0.5-12.1C421.5,630.4,426.4,630.3,430.3,634.2L430.3,634.2z M472,636.3l1.2,5.7l0.3,0.3l1.9-2.5l6-6l10.2,10.2
				l-22.9,22.9l-1.8-1.8l-5.7-18.6l-0.9-5.2L460,641l-2.1,2.8l-5.1,5.1l-10.2-10.2l22.4-22.4l1.5,1.5L472,636.3z M496.8,611.5
				l1.2,5.7l0.3,0.3l1.9-2.5l6-6l10.2,10.2l-22.9,22.9l-1.8-1.8l-5.7-18.6l-0.9-5.2l-0.2-0.2l-2.1,2.8l-5.1,5.1L467.4,614l22.4-22.4
				l1.5,1.5L496.8,611.5L496.8,611.5z M532.1,596.3l-0.2,0.2c0.6,4.5,0.6,7.8-2.4,10.8c-5.9,5.9-16.6,1.7-23.2-4.9
				c-6.8-6.8-11-17.6-4.9-23.8c2.6-2.6,6-3.6,10.2-2.5l0.2-0.2l-3.5-2.9l10.3-10.3l27.1,27.1l-10.3,10.3L532.1,596.3L532.1,596.3z
				 M523.2,593c2-2,0.8-4.8-1.3-6.9s-4.8-2.5-6.5-0.8c-1.7,1.7-1,4.5,1,6.5C518.6,593.9,521.2,594.9,523.2,593z"/>
			<path class="st0" d="M470.2,711c5.8,0,10.9,4.1,10.9,10.6c0,6.5-5.1,10.7-10.9,10.7c-5.8,0-10.9-4.2-10.9-10.7
				C459.3,715.2,464.4,711,470.2,711z M470.2,730c4.4,0,8-3.5,8-8.4c0-4.8-3.6-8.3-8-8.3c-4.5,0-8,3.5-8,8.3
				C462.2,726.5,465.7,730,470.2,730z M465.9,715.7h4.5c3,0,4.7,0.9,4.7,3.5c0,2.2-1.4,3-3.1,3.2l3.2,5.2h-2.5l-2.9-5.1h-1.5v5.1
				h-2.4L465.9,715.7L465.9,715.7z M468.3,720.6h2.1c1.3,0,2.3-0.2,2.3-1.6c0-1.3-1.4-1.5-2.4-1.5h-2V720.6L468.3,720.6z"/>
			<path class="st1" d="M280.2,518.1c10.7-10.7,10.7-28,0-38.7c-10.7-10.7-28-10.7-38.7,0c-10.7,10.7-10.7,28,0,38.7
				C252.1,528.8,269.5,528.8,280.2,518.1z M362.4,518.1c10.7-10.7,10.7-28,0-38.7c-10.7-10.7-28-10.7-38.7,0
				c-10.7,10.7-10.7,28,0,38.7C334.4,528.8,351.7,528.8,362.4,518.1z M442.1,392.8c10.7-10.7,10.7-28,0-38.7
				c-10.7-10.7-28-10.7-38.7,0c-10.7,10.7-10.7,28,0,38.7C414.1,403.5,431.4,403.5,442.1,392.8z"/>
		</g>
	</g>
</g>
</svg>
