<svg version="1.2" xmlns="http://www.w3.org/2000/svg" viewBox="0 0 3402 3402" width="3402" height="3402">
	<title>al-azhar-al-sharif-seeklogo</title>
	<defs>
		<clipPath clipPathUnits="userSpaceOnUse" id="cp1">
			<path d="m0 0h3402v3402h-3402z"/>
		</clipPath>
	</defs>
	<style>
		.s0 { fill: none;stroke: #000000;stroke-width: .5 } 
		.s1 { fill: #85754d } 
	</style>
	<g id="Page 1" clip-path="url(#cp1)">
		<path id="Path 1" fill-rule="evenodd" class="s0" d="m0 3402h3401.57v-3401.57h-3401.57z"/>
		<path id="Path 2" fill-rule="evenodd" class="s1" d="m1624.15 234.2c3.64-6.96 7.24-13.93 10.99-20.85 12.73 30.6 22.28 62.47 30.37 94.58 4.06 12.03 0.54 24.6-6.66 34.62-8.93-36.91-19.92-73.34-34.7-108.35zm165.79 4.52c2.4-5.95 6.62-10.9 10.29-16.09 17.41 14.04 18.18 37.49 17.45 57.99 9.55-13.46 17.83-29.56 33.38-37.06 6.08 1.82 8.13 8.55 9.87 13.93-1.43 6.18-6.81 10.4-10.22 15.47-1.97-2.75-5.95-8.24-7.93-10.99-10.71 12.96-18.76 28.09-30.75 39.92-1.97 0.2-5.92 0.62-7.89 0.81-3.4-10.83-0.39-22.35-1.35-33.46 0.62-11.87-12.19-18.99-12.85-30.52zm-202.96 14.51c-3.79-8.47 2.94-16.01 6.5-23.17 6.92 10.1 15.36 18.99 23.29 28.28-9.48 14.04-0.12 29.12 3.75 43.36 4.21 14.85 6.15 31.64-0.27 46.19-8.24 14.93-27.97 17.48-43.02 13.07-5.84 11.95-18.95 23.36-31.91 13.31-5.34 7.89-12.26 17.02-22.94 16.36-12.84-1.36-19.22-15.2-30.91-19.15-8.51-0.42-15.31 6.54-19.84 13-12.84 19.88-15.32 44.02-23.01 65.95-2.94 9.09-9.25 17.87-18.84 20.54-8.71 2.9-17.64-2.24-23.87-8.01-13.81-12.84-18.37-32.33-19.69-50.51-0.04-8.28-2.75-19.93 9.21-19.96 0.07 18.25-1.47 41.27 15.08 53.42 10.33 8.58 21.39-4.14 24.22-13.81 11.72-28.59 13.07-67.27 43.75-83.13 19.03-9.94 27.62 21.58 46.45 15.24 15.44-5.49 5.27-27.19 18.53-35.4 1.63 7.47 2.48 15.17 4.99 22.44 3.6 5.26 11.26 0.5 13.74-3.75 4.87-10.72-0.35-25.76 11.17-33.15 1.71 8.78 0.43 21.2 10.72 25.03 10.21-0.89 21-4.11 27.85-12.23-2.71-25.99-17.02-49.24-24.95-73.92zm112.6-4.25c3.91-6.16 12.03-5.73 18.18-7.93-6.77 15.39-20.27 30.55-15.12 48.54q7.83 1.39 15.78 2.09c-1.66 7.2-1.7 17.37-10.4 19.84-9.25 4.38-18.8-3.98-21.24-12.61-4.87-17.48 1.86-36.16 12.8-49.93zm-190.66 23.71c8.74 3.01 17.29 6.65 25.61 10.75-2.63 7.04-5.3 14.04-8.09 21.04-8.55-3.4-17.02-7.04-25.6-10.36q3.95-10.75 8.08-21.43zm217.51 58.45c3.02-27 25.1-48.16 49.05-58.61-14.28 13.7-35.13 27.93-31.88 50.56 1.28 10.68 14.35 12.57 22.9 10.37 22.17-4.22 42.82-14.28 65.22-17.8 21.01-3.56 44.91-2.67 62.4 11.03 42.04 33.03 84.59 65.64 129.5 94.81 22.13 13.88 44.49 28.47 70.17 34.89 7.16-11.18 14.89-24.02 28.51-27.85 10.33-3.06 20.66-6.31 29.79-12.23 4.48 23.75 18.76 45.07 19.49 69.52 0.74 17.63-15.97 27.88-30.52 33.07-17.06-7.16-28.39-21.82-41-34.51-14.93-6.03-31.68-7.85-46.15-15.7-57.02-27.74-107.57-66.73-156.7-106.38-13.89-10.79-26.81-26.45-45.92-26.49-34.11-4.1-64.83 13.42-97.13 20.46-14.77 3.44-29.67-10.14-27.73-25.14zm-29.24 26.88c6.3-3.09 12.61 2.32 18.56 4.1 114.23 52.49 221.84 119.64 318.94 199.56 76.59 63.9 146.45 137.55 197.2 223.89 45.22 76.32 73.03 163.94 72.64 253.1-0.08 439.85-0.04 879.66-0.04 1319.48 0.7 42.9-2.63 85.99-11.68 127.96-25.14 114.54-90.86 216.5-172.4 299.24-92.53 94.62-204.05 168.96-321.65 228.73-32.49 15.55-64.87 32.03-99.14 43.25-16.98-3.99-32.03-13.66-47.96-20.51-121.7-60.38-236.5-135.96-336.23-228.49-95.54-89.9-178.28-200.68-207.84-330.62-14.96-60.76-10.79-123.66-11.33-185.59 0.08-421.6-0.15-843.15 0.12-1264.71 1.24-114.46 45.33-225.32 113.57-316.18 81.07-108.89 189.77-194.23 305.66-263.47 58.14-34.39 118.6-65.22 181.58-89.74zm-152.49 88.54c-113.99 65.18-221.22 145.56-304.54 247.84-76.51 93.53-129.28 210.47-129.9 332.74-0.23 450.07-0.03 900.13-0.11 1350.16-0.47 50.01 8.2 99.95 24.68 147.14 39.3 113.8 118.05 209.35 206.44 289.11 106.77 94.35 228.3 172.06 358.31 230.28 137.09-55.98 266.02-133.84 375.92-233.45 97.94-90.01 179.98-204.43 205.94-337.04 11.99-54.46 8.86-110.43 9.2-165.75q0-636.34 0-1272.67c0.31-77.48-22.12-154-58.64-221.92-53.8-100.11-134.38-183.16-222.3-253.99-94.66-75.04-198.29-139.41-308.92-188.19-53.57 21.9-105.87 46.89-156.08 75.74zm369.57-169.85c6.73-1.12 13.81-0.93 19.65 3.09 61.12 35.98 121.34 73.5 183.39 107.93-7.31 5.68-16.48 4.33-23.87-0.27-45.64-25.11-89.82-52.73-133.99-80.27-15.24-9.9-31.76-18.06-45.18-30.48zm-377.46 8.67c8.51 3.59 16.98 7.27 25.53 10.86-2.71 7.35-5.45 14.63-8.2 21.94-8.32-3.48-16.63-6.97-24.99-10.29q3.71-11.32 7.66-22.51zm-67.65 9.36c6.3 3.52 13.38 8.47 13.57 16.55 2.25 8.28-6.88 11.1-12.18 14.66-4.45 2.86-8.13 8.55-14.08 7.66-6.27-6.3-6.69-15.36-7.78-23.59 4.22 4.25 8.36 8.47 12.73 12.57-0.5-6.42-0.93-12.85-0.58-19.31 4.72 4.84 9.44 9.71 14.7 14.01-1.51-7.66-4.61-14.93-6.38-22.55zm26.88 26.22c3.09-6.96 5.57-14.23 9.82-20.58 8.48 1.55 16.95 4.61 23.48 10.45-1.85 7.08-4.44 13.96-6.76 20.89-8.86-3.6-17.68-7.16-26.54-10.76zm-89.78-1.62c0.97-8.24 9.94-6.15 15.28-3.91 7.7 2.67 5.84 12.11 7.89 18.37-3.25-0.23-9.79-0.69-13.08-0.92 4.45 16.36 11.61 32.03 14.24 48.85-0.77 1.51-2.36 4.57-3.13 6.11-14.05-2.9-23.37-16.94-36.25-23.21-8.12-0.15-16.25-0.58-24.33-1.12-2.59-6.19-5.11-12.38-7.54-18.64 20.89-8.16 39.49 6.69 55.78 17.75-3.45-14.23-10.33-28.43-8.86-43.28zm572.65 61.39c8.47-12.96 12.72-34.01 31.56-34.62-6.23 14.58-14.35 31.13-31.56 34.62zm-289.93 12.76c8.17-4.8 17.33-3.75 25.3 0.93 106.53 50.79 207.34 113.96 298.71 188.73 85.52 70.94 163.23 154.49 212.9 254.8 29.48 60.03 47.81 126.22 48.12 193.37-0.04 451.34 0 902.64-0.04 1353.98-0.69 86.69-27.93 171.79-72.18 245.87-58.76 99.02-143.7 179.91-236.54 246.86-82.43 59.15-171.48 109.28-265.36 147.89-71.52-31.69-139.37-71.26-204.47-114.5-99.45-67-193.1-145.49-264.43-242.66-46.57-63.7-83.17-136.19-97.4-214.29-11.06-55.98-6.04-113.26-7.16-169.89 0-415.22 0.04-830.39 0-1245.6-0.19-51.33 8.16-102.63 24.33-151.33 38.53-115.11 117.48-212.05 208.11-290.77 98.6-84.36 210.97-152.29 330.11-203.39zm-343.84 270.66c-82.28 80.38-150.9 180.72-171.4 295.68-6.3 32.42-6.73 65.49-6.46 98.37 0.04 441.05-0.04 882.11 0.04 1323.16-0.43 59.65 15.28 118.52 40.77 172.17 4.49 8.55 7.43 18.49 14.82 25.11 14.93-34.74 31.41-69.01 52.8-100.35 42.35-63.82 100.92-118.56 172.25-148.15 0.23-100.38-0.08-200.8 0.15-301.18 1.16-12.49-6.38-23.01-11.76-33.57-8.43-16.25-16.78-32.49-25.02-48.82-3.18-5.57-3.64-12.03-3.6-18.22 0.11-59.8 0.27-119.6-0.04-179.4 11.53-0.08 23.05-0.08 34.62-0.2-0.35-107.46 0-214.95-0.19-322.41-10.14-0.27-20.23-0.54-30.33-0.93 0.43-46.88 0.15-93.8 0.15-140.69q15.16-0.11 30.37-0.11c0.35-28.74-1.24-57.56 0.58-86.22 18.68-37.33 40.66-73.07 60.62-109.78-7.93-21.51-25.61-37.33-34.28-58.41-16.28-32.38-13.11-71.68 2.52-103.67 13.54-29.24 38.21-51.25 64.98-68.2-5.75-3.67-9.81-8.1-12.95-14.16-9.39-18.13-2.31-40.43 15.82-49.82q-1.08-1.28-2.13-2.64c-0.41-0.37-0.75-0.7-1.13-1.1-10.01-10.27-9.79-26.7 0.48-36.71 10.27-10 26.71-9.79 36.71 0.48 10.01 10.28 9.79 26.71-0.48 36.72q-1.27 1.72-2.55 3.33c6.51 3.3 11.21 7.74 14.88 14.04 10.01 17.21 4.16 39.28-13.05 49.29q-0.04 0.03-0.09 0.07c28.28 16.94 53.46 40.5 67.27 70.83 14.51 31.91 17.06 70.24 1.16 102.16-8.2 20.92-27.23 35.85-32.3 58.21 17.83 30.99 34.08 62.9 51.68 94.08 3.56 6.96 8.47 13.92 8.01 22.12 0.19 26.5-0.16 52.96-0.04 79.46 9.94 0.03 19.92 0.15 29.9 0.19-0.5 47.11 0 94.19-0.27 141.3-9.83-0.07-19.69-0.19-29.51-0.38-0.2 107.76-0.04 215.49-0.08 323.22 21.62-0.23 43.21-0.07 64.83-0.15-0.47-107.65 0.08-215.31-0.27-322.96q-14.86 0.11-29.71 0.27c-0.19-47.15 0-94.3-0.12-141.46 10.1-0.11 20.16-0.11 30.25-0.19-0.42-26.5-0.46-52.99-0.31-79.45-0.58-7 2.98-13.15 6.31-19 17.06-29.47 33.34-59.45 50.21-89.04 8.04-11.53-2.52-24.06-9.13-33.42-22.36-28.32-37.17-65.26-29.24-101.62 7-44.99 39.06-81.7 77.32-104.21q-0.29-0.24-0.58-0.49c-6.23-3.74-10.58-8.49-13.78-15.01-8.75-17.86-1.36-39.42 16.49-48.17q-1.65-1.85-3.22-3.88c-0.2-0.21-0.36-0.39-0.55-0.6-9.53-10.61-8.66-26.94 1.96-36.48 10.61-9.53 26.94-8.65 36.48 1.96 9.53 10.62 8.65 26.95-1.96 36.48q-1.1 1.39-2.23 2.68c6.44 3.25 11.11 7.59 14.83 13.77 10.39 17.28 4.8 39.71-12.48 50.1q-0.09 0.09-0.18 0.18c37.21 21.08 67.84 56.36 76.32 99.07 5.99 25.22 2.63 52.18-9.17 75.27-8.32 20.04-26.23 34.66-31.57 56.09 17.68 30.29 33.35 61.66 50.72 92.06 3.86 7.66 9.43 15.17 8.97 24.22 0.23 26.46 0.12 52.92-0.23 79.37 10.21 0.16 20.42 0.24 30.63 0.39-0.31 47.12 0.08 94.23-0.23 141.35-10.02-0.04-20.07-0.08-30.09-0.04-0.27 107.49 0.38 214.99-0.35 322.49 11.49 0.19 23.02 0.27 34.5 0.15 0.35 58.68-0.11 117.33 0.27 176.01-0.15 7.35 0.28 15.16-3.52 21.81-8.04 16.33-16.59 32.42-24.95 48.59-5.37 10.63-12.76 21.27-11.52 33.84 0.23 99.84-0.04 199.72 0.15 299.6 73.73 28.16 133.22 85.1 175.5 150.66 22.28 32.65 37.18 69.32 53.85 104.91 23.01-45.61 40.11-94.5 47.27-145.18 4.83-30.63 3.44-61.73 3.67-92.6 0-438.42 0.04-876.84-0.04-1315.3 0.62-49.4-11.02-98.29-29.24-144.02-37.25-91.6-101.85-169.31-174.03-235.69-98.02-89.04-210.66-161.3-329.65-219.01-129.82 57.17-252.55 133.26-355.1 231.78zm487.51-275.22c1.01-17.53 18.84-32.11 36.24-30.76-8.16 8.09-16.71 15.79-25.14 23.6q5.28 5.56 10.68 11.06-5.69 5.06-11.37 10.06c-4.26-3.94-11.61-6.85-10.41-13.96zm-497.57-7.35c19.07 5.99 39.03 17.79 43.37 38.95 5.61 17.91-9.67 31.99-21.74 42.59-9.48 9.21-22.67 12.84-33.11 20.38-23.91 55.98-58.72 107.08-101.97 149.94-33.11 33.03-71.06 62.78-115.39 79.06-21.12 8.43-44.64 4.8-65.95-0.89 12.84-6.5 27.39-8.2 40.69-13.5 37.87-14.7 72.18-37.48 102.86-63.94 47.19-41.62 87.57-91.56 115.27-148.23-13.77-10.37-29.01-23.79-27.58-42.82-1.82-12.15 3.21-23.52 13.96-29.55 20.43 4.25 36.67 18.76 43.91 38.21 13.03-9.97 26.19-20.26 35.24-34.23q-13.01-6.15-26.19-11.72c-1.16-8.08-2.32-16.17-3.37-24.25zm-42.16 56.12c-9.24 6.5-6.46 18.69-5.69 28.2 7.74 0.66 16.41 2.63 23.14-2.55 3.86-5.92 6.22-13.42 4.17-20.46-5.68-5.26-14.12-7.85-21.62-5.19zm819.4 8.09c-3.52 7.81 1.59 15.63 4.1 22.94 9.21 0.89 21.59 2.4 22.71-10.25 5.03-15.98-16.98-22.44-26.81-12.69zm16.63 36.4c7.12 7.89 14.94 15.39 25.19 19.03-1.16-10.4-3.21-20.77-7.39-30.4-6.39 3.05-11.96 7.5-17.8 11.37zm-560.58 344.3c0-7.27-5.89-13.17-13.17-13.17-7.28 0-13.17 5.9-13.17 13.17 0 7.28 5.89 13.18 13.17 13.18 7.28 0 13.17-5.9 13.17-13.18zm289.94 0.01c0-7.12-5.77-12.89-12.89-12.89-7.12 0-12.89 5.77-12.89 12.89 0 7.12 5.77 12.9 12.89 12.9 7.12 0 12.89-5.78 12.89-12.9zm-307.57 47.61c-38.26 20.39-69.25 58.69-72.03 103.09-2.75 30.41 13.77 57.95 31.68 81.08 27.19 0.46 54.43 0.7 81.62 0.23 8.97 1.28 13.07-7.7 17.64-13.61 14-20.97 25.37-45.88 21.62-71.68-4.33-40.93-32.26-75.9-66.8-96.47-4.14-2.21-9.13-6.08-13.73-2.64zm290.46 0.04c-40.54 21.39-72.68 63.44-72.61 110.6 1.12 27.27 14.86 53.03 32.88 72.99 26.89 2.09 54.04 0.62 81 0.81 9.02 1.43 12.92-7.58 17.45-13.46 14.16-20.89 25.49-45.88 21.81-71.72-4.1-41-32.3-75.93-66.8-96.59-4.29-2.39-8.97-6.3-13.73-2.63zm-32.88 197.13c1.51 4.21 3.13 8.43 4.72 12.68 22.2-0.11 44.4-0.07 66.65-0.07 1.62-4.14 3.32-8.24 4.99-12.38-25.46-0.27-50.91 0-76.36-0.23zm-286.05 25.02c-18.8 32.81-36.87 66-55.59 98.8 58.8 0.54 117.55-0.08 176.35 0.31-17.02-33.62-35.08-66.77-53.96-99.38-22.28 0.47-44.52 0.2-66.8 0.27zm-20.27 111.49h-40.15v84.09h40.15zm93.43 0.15h-81.65v83.79h81.65zm52.71-0.12h-39.49v84.02h39.49zm144.01 0.07h-39.65v83.88h39.65zm94.58-0.03h-81.36v83.94h81.36zm51.83 0.05h-40v83.84h40zm-259.98 96.47h-247.18v18.71h247.18zm290.35 0.09h-246.79v18.63h246.79zm-290.58 31.52h-246.62v69.86h246.62zm290.35 0.04h-246.32v69.66h246.32zm-216.28 418.8h19v-336.33h-19zm31.84 0h18.78c0.59-51.7 0.02-103.4 0.25-155.14 0.23-19.34-1.24-38.8 1.66-58.02-1.43-10.21-4.29-21.24 1.36-30.75 9.28-18.38 24.17-33.27 40.03-46.11 14.97 15.01 31.8 29.71 39.88 49.82 3.72 8.55 0.74 17.91 0.12 26.77 2.48 20.62 1.12 41.43 1.39 62.16 0.12 50.43-0.22 100.85 0.18 151.27h18.54c-0.19-112 0.08-224.01-0.15-336.05-40.58 0.04-81.19 0.19-121.81-0.08-0.46 112.02 0 224.08-0.23 336.13zm134.94 0h19.48v-336.48h-19.48zm-103.43 0h59.04c0-66.06 0.04-132.09 0-198.11q-9.75-0.11-19.45-0.16c9.51-9.24 22.04-19.53 19.76-34.47-5.53-16.16-17.91-28.77-30.44-39.88-10.56 12.3-23.63 23.79-28.55 39.77-2.67 14.81 9.98 25.34 19.42 34.62-6.54 0.12-13.07 0.12-19.57 0.19 1.27 54.31-1.12 108.62 0.54 162.97 0.23 11.67-0.43 23.37-0.75 35.07zm-276.25 13.86h-111.91v14.04h111.91zm154.53 0.31h-142.23v13.74h142.23zm150.71-0.01h-138.29v13.74h138.29zm128.09-0.19h-115.41v13.93h115.41zm-540.95 173.68c11.11 22.05 22.52 43.98 33.62 66.03 38.02-0.08 76.05 0.23 114.11-0.16-12.88-21.81-25.34-43.82-37.71-65.91q-55.01-0.24-110.02 0.04zm423.11 0c-11.34 22.08-22.98 43.98-34.35 66.03 38.1 0.04 76.2 0 114.3 0q17.01-32.96 33.73-66.03c-37.9-0.23-75.77-0.2-113.68 0zm-115.02 67.36c0-21.97-17.8-39.77-39.77-39.77-21.96 0-39.77 17.8-39.77 39.77 0 21.96 17.81 39.77 39.77 39.77 21.97 0 39.77-17.81 39.77-39.77zm-155.08 12.12h-117.22v76.06h117.22zm348 0.01h-116.27v76.05h116.27zm-464.57 89.35c-1.35 72.92-0.19 145.87-0.62 218.83 39.65-10.33 78.76-22.87 116.09-39.92 2.32-59.54 0.7-119.22 0.85-178.83-38.76 0-77.56 0.11-116.32-0.08zm128.81 0.08c0.27 57.36-0.31 114.69 0.27 172.06 36.06-19.54 69.83-43.95 96.59-75.24-5.64-2.9-11.45-5.49-16.55-9.21-16.6-13.11-15.78-43.51 3.25-54.04 4.41-3.94 12.68-4.91 13.85-11.48-6.35-7.47-13.54-14.08-19.31-21.98-26.03-0.23-52.06-0.03-78.1-0.11zm128.2 0.11c-5.03 9.37-17.29 14.63-19 25.34 5.88 3.87 12.42 6.77 18.03 11.14 11.37 9.63 12.8 27.16 7.27 40.27-4.6 10.79-15.9 15.47-25.84 20.11 26.73 31.8 60.15 57.45 97.4 75.82 0.2-57.64-0.04-115.23 0.12-172.83-26 0.15-51.99-0.08-77.98 0.15zm91.21-0.15c-1.24 30.52-0.58 61.12-0.08 91.64-0.85 29.32-0.81 58.68 0.62 88 37.29 16.44 76.4 28.16 115.81 38.18-0.19-72.61 0.24-145.18-0.23-217.78-38.68 0.04-77.4 0.08-116.12-0.04zm-150.36 197.12c-19.46 35.36-38.76 71.41-48.97 110.71-14 54.5-15.55 111.02-18.14 166.91-2.01 89.36-1.94 178.79-1.47 268.19 32.1-0.43 64.21-0.04 96.32-0.24-0.31-199.52 0.85-399.08-0.58-598.6-10.06 17.14-17.37 35.7-27.16 53.03zm40.69-52.99c-0.81 199.52-0.23 399.08-0.27 598.64 32.11 0 64.22-0.23 96.32 0.16 0.39-88.08 0.35-176.2-1.2-264.28-3.4-64.52-3.71-130.63-25.06-192.4-11.3-34.04-29.4-65.11-46.23-96.55-8.24-15.01-14.23-31.18-23.56-45.57zm-212.28 101.77c-54.54 29.24-101.81 72.07-135.43 124.05-38.1 58.18-59.95 125.45-72.76 193.41 24.45 29.75 51.06 57.68 79.57 83.52 6.34-91.91 15.4-186.22 53.77-271.2 23.36-52.53 62.35-97.32 109.55-129.86 28.43-20.73 60.53-35.62 89.08-56.2-39.65 22.32-84.21 33.88-123.78 56.28zm75 32.42c-40.07 51.75-56.59 116.93-65.83 180.64-13.23 93.96-14.82 189.16-14.63 283.89 31.88-0.27 63.75 0.08 95.63-0.23 0.38-84.14-0.39-168.31 1.04-252.44 1.9-64.6 3.6-130.13 20.85-192.79 10.6-38.76 30.6-73.92 49.55-109.05-29.47 29.36-61.31 56.71-86.61 89.98zm174.65-90.52c16.17 30.6 33.5 60.85 44.72 93.77 17.02 49.51 20.73 102.23 23.86 154.14 4.88 102.24 1.82 204.67 3.72 306.98 31.6 0.24 63.17-0.27 94.77 0.35 0.93-66.84-1.12-133.68-5.61-200.33-6.81-77.95-14.43-158.83-51.87-229-26.31-50.05-70.52-86.41-109.59-125.91zm37.79 1.59c30.87 22.36 65.88 38.29 96.21 61.46 46.61 33.46 83.86 79.65 105.98 132.6 36.71 86.5 45.26 181.46 50.48 274.3 29.52-26 56.6-54.74 81.39-85.3-12.96-69.31-33.77-138.4-72.06-198.24-33.81-53.88-82.13-98.33-138.18-128.39-39.61-22.43-84.28-33.84-123.82-56.43zm-301.1 116.39c-45.8 50.6-69.28 116.82-82.97 182.66-10.83 56.28-17.72 113.68-18.14 170.97 30.09 28.24 62.82 53.89 96.55 77.71 0.04-50.21 0.85-100.41 2.9-150.59 5.38-85.83 10.6-173.95 43.83-254.41 20.81-50.67 58.68-91.56 98.79-127.8-50.05 29.01-102.24 57.44-140.96 101.46zm297.85-101.23c44.8 39.57 85.45 86.49 105.18 143.9 28.82 81.58 33.5 168.96 38.26 254.6 1.85 47.04 0.31 94.15 3.52 141.15 21.74-12.99 41.27-29.16 61.15-44.71 11.88-10.1 24.99-19 35.13-30.91-2.52-62.4-7.47-125.06-20.74-186.22-13.61-62.82-36.51-125.75-79.76-174.49-38.95-45.03-91.79-74.19-142.74-103.32zm-364.81 52.88c-60.26 35.12-106.41 90.36-139.6 150.97-14.27 27.51-28.97 55.44-37.21 85.38 10.48 19.99 24.64 37.9 38.53 55.7 16.05-77.25 43.82-153.84 93.53-216.04 40.85-52.38 96.7-91.64 157.63-117.29-39.11 8.98-78.22 20.54-112.88 41.28zm459.82-41.04c66.18 27.34 125.44 72.25 167.34 130.59 45.25 62.04 70.94 136.12 85.33 210.97 15.35-18.53 29.94-38.3 40.5-60-28.9-86.61-77.09-170.62-151.98-225.32-41.24-30.79-91.22-46.69-141.19-56.24zm-348.43 558.06c12.18 7.27 23.44 19.38 38.68 18.84 94.11-0.12 188.3 0 282.46-0.08 9.9-5.49 19.14-12.03 28.35-18.64-116.51-0.27-233.02 0.04-349.49-0.12zm85 50.48c13.54 7.89 26.65 20 43.33 19.27 29.7-0.16 59.45-0.16 89.16 0 17.83 1.12 32.18-11.34 47-19.35-59.85 0.2-119.69 0.08-179.49 0.08zm-376.49-2518.58c8.36-1.59 16.79-2.59 25.3-3.25q1.57 9.51 3.02 19.03-11.85 1.68-23.64 3.83-2.43-9.81-4.68-19.61zm954.13 40.38c6.89-1.35 18.26-5.37 23.17 2.63 8.86 13.77-8.82 33.77-23.21 24.57-8.43-4.41-5.95-14.28-5.45-21.94 5.57 5.65 10.4 12.11 16.9 16.87 8.98 0.35 2.63-9.67 2.17-14.16-4.68-2.4-9.32-4.87-13.58-7.97zm-817 13.93c9.24 1.58 18.72 2.71 27.58 5.88 1.7 7.89-1.7 15.86-2.9 23.63-5.88-1.16-11.8-2.32-17.68-3.44q-1.34 11.08-2.75 22.16c-9.51-1.08-18.95-2.28-28.43-3.4 1.12-8.35 2.29-16.71 3.33-25.1 6.11 1.08 12.18 2.12 18.3 3.21 0.89-7.62 1.7-15.28 2.55-22.94zm672.21 64.02c4.14-21.7 23.91-37.64 44.8-42.21-9.09 9.48-21.47 17.22-25.34 30.49-3.56 10.17 7.16 18.83 16.71 17.79 26.04-0.66 51.22-10.06 77.44-8.94 20.12 0.62 43.33 5.19 55.98 22.4 4.68 11.33-9.25 16.91-15.67 23.79-9.05-21.93-34.77-26.96-55.97-26.5-25.11-0.77-48.97 8.98-73.89 9.67-13.96 1.05-26.84-12.57-24.06-26.49zm160.92-35.98q10.2-1.51 20.46-3.13c1.24 7.58 2.52 15.16 3.56 22.78-6.53 1.4-13.07 2.94-19.49 4.68-1.59-8.12-3.1-16.2-4.53-24.33zm44.8 44.56c0.23-21.12 31.25-19.18 38.99-4.06 0.46 6.73-6.62 8.05-10.87 10.99-1.28-7.27-5.3-17.76-14.7-13.42 3.6 10.09 11.06 18.02 18.1 25.84-2.78 0.69-8.39 2.12-11.22 2.86-9.01-6.23-18.29-12.07-28.12-16.95q3.88-2.65 7.82-5.26zm-1085.46-11.83c1.24 0.07 3.75 0.19 5.03 0.27 5.8 9.71 8.55 22.28 18.61 28.82 6.38 3.94 12.76-9.95 18.37-3.14 11.18 7.78 0.39 25.46-11.88 21.55-19.18-5.22-34.77-27.7-30.13-47.5zm1059.11 42.16c2.48-10.44 13.93-12.69 22.24-16.75-0.34 12.38-0.27 24.76 0.04 37.14-5.03 2.36-11.79 3.79-11.95 10.52-3.56 20.77-9.86 41.08-22.78 58.06 6.11-1.63 13.07-2.01 18.06-6.42 18.26-15.24 33.42-33.69 50.09-50.56 6.04-6.65 15.79-5.53 23.87-6.73-6.11 11.41-11.33 23.29-14.97 35.7q-7.26-0.63-14.47-1.2c-19.92 18.88-40.69 41.12-69.43 44.64-22.36-0.31-37.17-19.72-50.32-35.24-10.8-14.04-23.06-27.61-28.63-44.79 24.37 21.55 45.3 50.44 78.14 59.42l2.4-0.39c10.13-26.69 9.09-56.24 17.71-83.4zm-86.95 14.78c8.2-16.06 33.65-25.18 47.88-11.99-11.45 2.59-24.87 2.43-33.42 11.79 1.4 2.67 4.18 7.93 5.61 10.56-8.51 8.09-24.48 2.75-20.07-10.36zm-527.31 102.31c0-29.37-23.81-53.17-53.18-53.17-29.36 0-53.17 23.8-53.17 53.17 0 29.37 23.81 53.17 53.17 53.17 29.37 0 53.18-23.8 53.18-53.17zm-22.2 0c0-17.11-13.87-30.97-30.98-30.97-17.1 0-30.97 13.86-30.97 30.97 0 17.11 13.87 30.97 30.97 30.97 17.11 0 30.98-13.86 30.98-30.97zm312.5 0.02c0-29.37-23.81-53.19-53.19-53.19-29.37 0-53.19 23.82-53.19 53.19 0 29.38 23.82 53.19 53.19 53.19 29.38 0 53.19-23.81 53.19-53.19zm-22.22 0c0-17.1-13.86-30.97-30.97-30.97-17.1 0-30.96 13.87-30.96 30.97 0 17.1 13.86 30.97 30.96 30.97 17.11 0 30.97-13.87 30.97-30.97zm340.11 20.95c29.36-24.49 60.42-47.2 86.92-75.01 7.85 0.43 15.74 0.93 23.63 1.59-22.74 24.14-49.2 44.56-75.66 64.44-9.67 8.44-22.71 8.98-34.89 8.98zm-1142.86 41.08c8.59 3.9 17.14 7.93 25.61 12.18-29.32 61.85-49.63 129.9-47.15 198.94 0.03 518.38 0 1036.76 0 1555.13-1.78 44.41 3.67 88.82 16.28 131.45-8.7 2.39-17.37 4.99-26.03 7.5-11.45-37.44-18.26-76.44-17.8-115.66-0.04-527.43 0.04-1054.82-0.04-1582.25-2.51-72.06 20.08-142.23 49.13-207.29zm1229.35 11.1c8.24-3.68 16.44-7.39 24.68-11.14 31.22 68.5 53.19 143.08 49.01 219.09-0.04 523.56 0.04 1047.16 0 1570.72 0.5 39.15-6.54 77.99-17.44 115.47-8.82-2.59-17.64-5.15-26.5-7.54 10.02-35.13 17.02-71.33 16.48-107.97 0.11-532.53 0.04-1065.07 0.04-1597.6-0.62-63.09-22.09-123.55-46.27-181.03zm-22.39 1909.73c5.37 3.05 10.52 6.57 15.74 9.98q-6.26-0.01-12.46 0.04c-5.18 7.04-10.25 14.19-15.31 21.35 9.67 6.19 19.45 12.3 28.97 18.8 5.88-8.82 11.29-17.91 15.86-27.43 5.03 4.68 10.13 9.36 14.89 14.43-2.48-1.04-7.43-3.09-9.9-4.14-5.19 6.62-10.14 13.42-15.01 20.31 12.22 8.16 24.87 15.78 38.22 22.09 3.67-3.21 7.46-6.35 11.21-9.48-7.46 12.53-15.78 24.56-23.86 36.71 0.38-4.14 0.81-8.2 1.24-12.26-23.45-16.21-47.7-31.22-72.26-45.61-3.99 2.86-7.78 6-11.53 9.21 11.37-18.03 22.63-36.09 34.2-54zm-1214.7 35.55c31.99-4.99 63.52-12.65 95.59-17.06-17.99 29.55-40.58 56.01-58.1 85.87 1.31 4.37 2.55 8.78 3.79 13.27-6.54-8.43-12.73-17.14-17.91-26.42 7.66-8.32 14.81-17.06 21.58-26.07-5.72-8.59-11.37-17.22-17.09-25.8q-13.77 3.12-27.47 6.53c0.43 3.14 1.32 9.33 1.78 12.46-6.81-10.37-13.54-20.69-20.58-30.87 6 2.75 11.34 9.29 18.41 8.09zm35.63 2.28c4.22 7.04 8.55 14.04 12.88 21.08 7.16-9.17 14.86-17.91 21.35-27.54-11.45 1.89-22.82 4.33-34.23 6.46zm88.89 28.66c8.63 11.68 17.64 23.02 26.31 34.66-3.99-2.4-7.97-4.76-11.92-7.16-21.89 17.02-44.95 32.85-64.6 52.53 5.65 7.51 10.37 16.29 18.42 21.59q7.64 0.24 15.35 0.08-9.51 4.94-18.8 10.4c-13.19-16.28-24.99-33.73-39.3-49.05 5.53 0.43 11.84 3.37 16.79-0.73 21.04-14.82 40.73-31.53 60.89-47.58-1.05-4.91-2.09-9.86-3.14-14.74zm1019.23 32.92c8.86-10.41 16.33-22.16 27.12-30.75-1.43 2.43-4.33 7.35-5.8 9.82 20.92 20.47 45.25 37.1 68.35 55.01 4.76-3.13 9.51-6.27 14.27-9.32-9.24 11.68-18.68 23.24-28.24 34.69q1.33-5.97 2.83-11.83c-20.12-17.6-41.31-34-62.74-49.98-4.69-4.76-10.64 1.59-15.79 2.36zm-31.37 38.33c8.2-6.77 21.32-6.49 28.74 1.36 9.09 7.62 9.02 20.15 10.18 30.98 21.43 1.12 45.37 7.82 64.44-5.57-7.31 9.4-14.82 21.63-28.04 22.32-13.85 0-27.51-2.55-41.24-3.75q-4.81 4.65-9.55 9.36c8.47 7.93 17.13 15.71 26.42 22.75q6.27-3.43 12.72-6.62c-8.28 9.44-17.13 18.37-25.02 28.12 0.85-13.57-11.92-20.81-20.31-29.16-13.15-10.99-24.8-23.68-38.22-34.24-5.45-5.61-11.72 1.28-17.25 3.17 12.22-13.07 23.09-27.54 37.13-38.72zm-13.27 20.2c11.03 10.32 22.28 20.38 33.66 30.36 3.83-4.76 8.16-9.13 11.18-14.43q0.26-2.58-0.07-4.92c-0.29-2.03-0.83-4.18-1.61-6.33-3.44-9.52-13.66-24.94-28.9-16.42-5.64 3.25-11.07 9.19-14.26 11.74zm-960.31 56.36c29.51-10.95 58.13-24.18 88-34.16-11.26 29.55-26.07 57.64-37.6 87.11-3.79 6.85 0.31 13.93 2.36 20.62-7.16-7.23-14.43-14.35-21.59-21.59 5.5-9.82 11.34-19.65 14.86-30.4-5.73-7.97-12.88-14.82-19.54-21.97q-13.11 5.23-26.11 10.75 1.21 5.86 2.48 11.84c-7.31-7.74-14.66-15.44-22.52-22.59 6.46 0.5 13.31 3.05 19.66 0.39zm33.26-3.6c5.46 6.07 11.14 11.91 16.6 18.02 5.37-10.36 10.56-20.85 15.66-31.33-10.83 4.3-21.58 8.7-32.26 13.31zm859.44 1.35c31.95 12.19 61.81 29.21 93.72 41.55 4.49-1.82 9.06-3.52 13.62-5.19-7.08 7.89-14.89 15.09-23.21 21.66-9.13-6.42-18.95-11.87-29.01-16.59-7.47 6.85-14.97 13.69-22.4 20.62 5.3 9.2 7.12 33.38 22.86 22.51-8.85 8.16-17.25 16.87-26.65 24.49 2.05-6.04 7.55-12.3 4.64-18.8-10.67-30.25-23.63-59.69-33.57-90.25zm17.02 23.4c4.21 10.53 8.51 21.05 12.96 31.49 6.19-5.1 12.65-10.09 17.52-16.52-9.59-6.11-20.15-10.4-30.48-14.97zm-797.74 7.08c6.19-5.1 12.22-10.36 18.34-15.59 16.47 17.49 35.89 31.76 52.72 48.9-33.35 9.75-66.84 18.88-100.5 27.58 10.87 10.06 20.81 21.7 34.2 28.47 5.88 0.66 11.68-0.93 17.52-1.59-5.88 4.8-11.91 9.4-17.52 14.51-18.3-16.71-37.95-32.11-54.62-50.44 32.57-10.91 66.22-18.3 99.14-28.12-10.1-9.95-19.88-21.09-33.15-26.77-5.45 0.62-10.79 1.93-16.13 3.05zm708.38 35.01c11.88-8.08 23.21-16.98 35.09-25.07q-3.77 5.45-7.55 10.95c16.83 23.6 34.04 47.08 53.15 68.93q6.78-2.97 13.62-5.88c-11.02 9.94-22.86 18.92-35.51 26.66 1.74-2.29 5.26-6.85 7.04-9.13-7.62-13-16.83-24.88-26.34-36.48-12.92 10.29-26.04 20.35-39.42 30.02 8.97 11.29 16.59 23.94 27.58 33.46 4.91-1.36 9.71-3.1 14.54-4.84-11.14 9.21-22.78 17.79-33.69 27.27 1.51-5.96 4.41-12.76-0.46-17.95-15.05-20.38-29.79-41.27-46.65-60.19-5.15 0.51-10.1 2.05-15.05 3.37 11.41-8.63 22.78-17.29 34.47-25.57-1.55 2.36-4.61 7.08-6.12 9.44 6.58 10.21 13.62 20.15 21.2 29.67 12.57-10.56 26.73-19.19 38.76-30.41-5.57-9.43-12.22-18.37-20.19-25.91-4.87 0.23-9.71 0.81-14.47 1.66zm-626.41 8.24c12.61 7.35 24.37 16.01 35.55 25.38-4.18-1.4-8.32-2.79-12.5-4.11-6.5 9.52-16.32 17.84-18.99 29.33 12.18 9.9 25.18 18.87 38.6 27.03 8.47-8.51 14.08-19.22 19.96-29.51q-4.29-4.87-8.47-9.75c12.07 7.04 23.71 14.82 34.97 23.1-3.13-0.39-9.36-1.24-12.49-1.63-15.86 21.35-31.68 42.82-46.04 65.26-4.87 5.22 2.83 10.94 3.91 16.28-10.21-7.73-20.46-15.39-31.33-22.12 18.88-0.7 24.21-22.71 35.62-34.51-13.38-9.48-26.3-19.69-40.19-28.39-10.4 10.48-17.36 23.71-25.18 36.13 1.94 2.55 5.77 7.66 7.66 10.21-11.8-7.66-23.4-15.59-34.93-23.6 3.02 0.66 9.09 1.94 12.11 2.56 18.02-22.94 35.82-46.38 50.25-71.8q-4.29-4.93-8.51-9.86zm521 73.84c2.94-17.13 19.65-25.8 34.62-30.52 3.14 6.35 6.46 12.58 9.83 18.84-7.5-3.13-15.12-12.14-23.44-6.11-9.59 3.06-15.28 16.52-5.88 23.33 14.62 8.51 33.73 3.75 47.96 13.5 10.84 7.19 16.83 22.51 10.26 34.5-6.39 13.42-21.4 18.53-34.2 23.67-4.72-7.66-9.21-15.39-13.65-23.13 6.03 3.91 11.79 8.47 18.52 11.33 12 1.28 26.27-11.1 20.24-23.63-7.55-12.69-24.26-10.56-36.68-14-14-1.7-27.81-12.81-27.58-27.78zm-458.84 75.74c26.42-21.58 50.32-46.11 77.44-66.72-1.24 30.71-4.37 61.35-6 92.06-1.62 8.24 4.45 14.31 9.02 20.31-9.17-4.22-18.3-8.47-27.43-12.65 2.52-11.3 3.48-22.82 3.99-34.31-8.9-4.26-17.8-8.63-26.62-13.04-6.88 6.54-13.81 13.04-20.61 19.69 1.31 2.21 3.98 6.58 5.29 8.78-9.78-4.37-19.14-9.59-28.74-14.31 3.41 0.04 10.25 0.15 13.66 0.19zm36.24-18.49c7.16 3.02 14.05 7.39 21.98 8.32 1.54-11.14 2.63-22.32 4.25-33.42-9.4 7.62-18.03 16.17-26.23 25.1zm304.16-13.11c12.84-8.47 27.73-12.92 42.43-16.9-3.9 2.55-7.77 5.14-11.68 7.77 6.08 19.81 13.97 38.99 21.12 58.45 2.63 6.42 4.92 13.54 10.18 18.45 14.35-0.35 29.12-7.66 30.55-23.52 0.86 6.85 2.13 13.62 3.95 20.39-20.08 8.12-41 14.04-60.89 22.63 2.79-4.41 10.33-8.51 6.85-14.63-9.09-25.72-16.9-52.25-29.9-76.35-4.22 1.23-8.39 2.47-12.61 3.71zm-217.59-8.78c19.89 6.85 44.49 6.03 59.88 21.89 12.07 17.1-4.83 34.89-19.99 41.9 9.01 19.72 15.51 42.16 34.07 55.39-7.62-2.32-15.39-4.22-22.66-7.47-20.66-10.67-12.69-45.72-37.64-50.67-2.86 13.54-15.4 35.86 3.75 42.28-13.58-2.48-26.61-7.2-40.07-10.14 15.2-0.03 15.55-16.36 19.11-27.31 4.79-19.1 10.13-38.06 14.73-57.17-3.79-2.9-7.46-5.84-11.18-8.7zm26.58 12.49c-3.91 14.08-7.51 28.2-11.45 42.28 7.46 1.47 16.01 8.24 22.78 1.67 9.32-8.01 13.5-23.56 6.23-34.16-4.18-5.65-11.6-6.96-17.56-9.79zm139.06 1.43c19.81 24.45 32.84 53.58 50.91 79.3 3.4 5.34 9.59 7.43 14.89 10.49 0.04 0.38 0.15 1.12 0.19 1.47q-13.7 1.04-27.35 2.32c-4.72-10.1-10.05-19.85-15.66-29.44-10.18 1.7-20.31 3.48-30.45 5.26-0.73 11.1-11.68 29.4 5.54 32.45-11.03 0.55-23.45 2.44-35.05 3.25 5.11-3.48 13.42-4.29 14.7-11.41 8.51-30.94 13.73-62.74 22.28-93.69zm-5.65 61.86c8.28-1.09 16.48-2.4 24.72-3.68-5.53-10.09-10.87-20.27-16.59-30.21q-4.65 16.77-8.13 33.89zm294.74-1477.27h-1.85q-1.8 0-2.82-1.45-1.58-2.22-2.56-8.49l-4.1-26.63q-1.92 3.63-2.66 6.08-0.75 2.45-0.75 4.07 0 0.56 0.06 1.18 0.07 0.62 0.19 1.21l-2.26 1.33q-2.99 1.75-4.61 2.86-2.73 1.83-3.79 2.98-1.33 1.45-4.29 7.58-2.97 6.12-2.97 7.27 0 0.77 0.77 1.07 0.77 0.3 4.1 0.98l5.2 1.02q1.24 0.26 2.05 0.26 1.58 0 3.93-2.18 1.62-1.49 4.52-5.07 0.68 7.85 2.99 12.37 1.7 3.29 4.18 4.52 1.28 0.64 2.82 0.64h1.85 3.74 22.97v-11.13q0-7.81-1.17-11.78-1.17-3.97-4.37-7.6l-3.42 10.16q2.35 2.73 2.99 3.84 1.24 2.01 1.71 4.91h-18.71zm-12.87-12.51q-1.88 1.41-2.9 1.95-1.02 0.53-1.96 0.53-1.45 0-2.95-0.34-1.49-0.34-1.49-0.94 0-0.47 0.85-1.41 0.69-0.72 1.71-1.58 1.41-1.06 3.76-2.3 0.76-0.39 2.13-1.03zm73.12 19.47q-1.32 3.1-6.64 7.84-5.08 4.53-8.02 6.19-2.95 1.67-5.89 1.67-2.73 0-5.08-0.9-2.35-0.9-6.19-3.46l-1.79 2.65q7.98 5.5 11.74 7.34 4.31 2.13 8.06 2.13 3.16 0 7.6-3.5 4.01-3.15 7-7.44 2.98-4.29 2.98-6.89v-0.99h41.03 3.85 0.09q3.23-0.01 6.35-0.93 4.01-1.2 6.87-3.72 5.16 3.25 9.94 5.21 4.14 1.71 5.93 1.71 2.05 0 3.54-4.53 1.24-3.71 1.24-6.83 0-4.35-2.77-10.34-2.78-6-7.68-11.93-5.34-6.44-11.74-10.92-1.15 3.62-1.6 5.59-0.45 1.96-0.96 5.42l2.05 1.53q-3.16 1.97-4.78 6.27-1.45 3.85-1.45 9.01v1.53q-0.81 0.56-2.28 0.94-1.42 0.37-2.67 0.39-3.37-0.73-5.05-1.79-1.69-1.07-4.89-4.66-4.69-5.07-7.25-7.46-3.24-3.03-5.85-4.4-2.6-1.36-5.42-1.36-3.67 0-6.55 2.56-2.88 2.56-5.22 7.93 1.75-0.38 2.66-0.49 0.92-0.1 2.03-0.1 3.71 0 7.6 2.09 4.39 2.34 9.55 7.68h-26.57v-0.47q0-4.95-1.58-8.84-1.58-3.88-4.48-6.87l-2.39 11.53q2.22 2.09 3.76 5.24 0.59 1.21 0.92 2.21zm65.8-14.34q0 1.06-1.41 2-0.47 0.3-1.41 0.73-3.92-1.79-3.92-3.5 0-1.24 1.11-2.43 1.32-1.41 3.24-1.41 1.15 0 1.77 1.21 0.62 1.22 0.62 3.4zm11.78 7.93q0 0.69-0.77 0.69-2.35 0-7.94-3.08 1.32-2.47 1.69-3.54 0.36-1.06 0.62-3.11 2.68 2.51 4.54 5.14 1.86 2.62 1.86 3.9zm-54.57 15.11l-5.25 9.64 9.81 5.29 5.38-9.64zm-65-0.9l-3.59 6.92-6.31-3.16-4.44 8.28 7.94 4.35 3.41-6.74 6.06 3.41 4.69-8.7zm-32.02-66.96l-3.71 6.53-6.32-3.15-4.43 7.51 7.93 4.35 3.42-6.74 6.06 3.41 4.69-7.94zm-779.36 52.19h-1.85q-1.79 0-2.82-1.45-1.58-2.22-2.56-8.49l-4.09-26.63q-1.92 3.63-2.67 6.08-0.75 2.46-0.75 4.08 0 0.55 0.07 1.17 0.06 0.62 0.19 1.22l-2.26 1.32q-2.99 1.75-4.61 2.86-2.73 1.83-3.8 2.99-1.32 1.45-4.29 7.57-2.96 6.12-2.96 7.27 0 0.77 0.77 1.07 0.76 0.3 4.09 0.98l5.21 1.03q1.23 0.25 2.05 0.25 1.57 0 3.92-2.17 1.62-1.5 4.52-5.08 0.69 7.85 2.99 12.37 1.71 3.29 4.18 4.53 1.28 0.64 2.82 0.64h1.85 3.74 22.97v-11.14q0-7.81-1.17-11.78-1.17-3.96-4.37-7.59l-3.42 10.15q2.35 2.74 2.99 3.84 1.24 2.01 1.71 4.91h-18.71zm-12.86-12.5q-1.88 1.41-2.91 1.94-1.02 0.53-1.96 0.53-1.45 0-2.94-0.34-1.5-0.34-1.5-0.94 0-0.47 0.86-1.41 0.68-0.72 1.7-1.57 1.41-1.07 3.76-2.31 0.77-0.38 2.13-1.02zm130 27.26l-3.59 6.92-6.31-3.16-4.44 8.28 7.94 4.35 3.41-6.74 6.06 3.41 4.69-8.7zm-17.41-14.77q-2.65 0-3.33-7.08-0.38-8.32-0.72-16.64-0.6-11.78-2.82-19.08-4.95 8.88-4.95 11.78 0.64 3.71 1.26 7.47 0.62 3.75 0.62 7.72 0 6.62-2.86 11.18-2.43 3.89-7.89 7.43-3.08 2-11.78 6.4-1.49 0.76-4.5 1.81-3.01 1.05-6.08 2.11v2.73l4.95 0.09q13.44 0 19.97-4.06 6.74-4.18 10.49-15.4 0 6.06 2.56 10.75 2.01 3.7 4.23 4.29v0.11h0.85 3.12 19.27 3.47 4.97q3.03 0 4.78-0.56 3.63-1.15 6.11-4.86 4.05 2.09 9.38 3.63 6.06 1.75 10.54 1.75v-9.31q0-5.84-3.37-12.8-3.2-6.57-5.38-6.57-2.34 0-5.71 3.12-3.8 3.5-6.23 8.91-1.11 2.95-4.01 4.14-2.27 0.94-6.11 0.94h-4.97q-0.03-7.46-1.17-11.31-1.17-3.96-4.37-7.59l-3.42 10.15q2.35 2.74 2.99 3.84 1.24 2.01 1.71 4.91h-18.48zm53.66-1.32q0 0.6-0.94 0.6-0.43 0-3.88-1.28-1.16-0.43-3.37-1.28 1.15-3.84 2.81-3.84 1.49 0 3.54 2.56 1.84 2.3 1.84 3.24zm-67.28-8.45q0-7.68-9.9-16.81-4.39-4.14-9.38-7.11-5-2.96-7.51-2.96-1.62 0-1.62 3.07 0 2.01 0.57 5.16 0.58 3.16 1.73 4.83 1.62 2.39 5.29 4.99 3.41 2.43 4.69 2.43 0.77 0 1.2-0.83 0.43-0.83 0.43-2.67 4.13 2.18 7.16 5.8 3.03 3.63 5.55 9.31 1.03-1.75 1.41-2.84 0.38-1.09 0.38-2.37zm-29.93 7.68q0-9.94-2.13-15.96-2.31-6.53-7.85-10.66l-3.08 13.31q3.59 2.26 5.59 5.37 2.44 3.76 3.42 10.03h-14.68q-1.67 0-2.84-0.68-1.17-0.68-1.51-2.18l-1.62 0.09q-0.39 2.22-0.58 4.39-0.19 2.18-0.19 4.06 0 3.28 1.83 4.73 1.5 1.2 4.31 1.2h19.33zm-37.91 16.85l-3.59 6.91-6.31-3.15-4.44 8.28 7.94 4.35 3.41-6.74 6.06 3.41 4.69-8.71zm-32.02-66.94l-3.71 6.52-6.31-3.15-4.44 7.51 7.94 4.35 3.41-6.74 6.06 3.41 4.69-7.94zm956.79-53.8q0-9.57-1.61-18.66-1.61-9.09-4.55-17.38-2.94-8.28-6.23-13.76-2.9-4.74-9.82-13.59l-9.97 24.62q7.8 10.13 11.34 16.21 3.54 6.07 6.52 14.68 3.62 10.22 4.86 17.62 1.25 7.4 1.25 21.15h4.99q3.22-20.19 3.22-30.89zm-47.62 4.35q-9.34-10.06-12.39-19.07-2.42-7.16-2.42-20.03 0-6.03 0.65-10.1 0.64-4.06 2.73-12.1-10.46 2.01-13.79 2.45-3.35 0.44-7.61 0.44-9.25 0-12.02-1.61-2.78-1.6-3.74-7.56h-3.87q-0.24 3.62-0.24 5.71-0.4 11.83-0.4 15.37 0 7.8 4.34 10.62 3.7 2.41 13.04 2.41 2.81 0 6.35-0.44 3.54-0.44 8.77-1.49-0.32 3.78-0.88 9.45-0.57 5.67-0.57 11.95 0 16.81 3.38 24.62 3.38 7.8 14.48 15.44zm-76.09-55.91q0-2.49-0.2-5.63-0.2-3.14-0.44-5.31h-3.38q-1.45 12.07-9.01 12.07-4.03 0-6-2.74-1.97-2.73-2.69-9.33h-3.86q0 7.64-3.34 11.95-3.34 4.3-9.21 4.3-5.64 0-10.14-3.74-4.5-3.74-9.33-12.51l-8.05 24.62q8.37 11.82 11.87 19.1 3.5 7.28 5.99 17.9 2.09 7.72 2.66 13.88 0.56 6.15 0.56 18.46h4.35q2.89-10.38 3.86-16.17 0.96-5.79 0.96-12.79 0-5.79-0.8-10.74-0.81-4.95-2.9-12.43 4.75-0.96 6.92-2.41 2.17-1.45 5.15-5.63 2.89 3.54 5.03 4.66 2.13 1.13 5.59 1.13 16.41 0 16.41-28.64zm-657.05 4.34q0-4.27-0.24-7.45-0.24-3.17-0.24-8h-4.67q0 14.8-13.68 14.8-6.28 0-10.86-3.34-4.59-3.33-10.71-12.11l-7.72 23.18q8.45 11.83 12.19 18.55 3.74 6.72 7.56 16.81 3.82 10.1 4.23 11.39 1.69 5.15 2.53 10.98 0.85 5.84 0.85 13.88h4.5q1.37-9.01 1.9-14.32 0.52-5.31 0.52-9.98 0-7.24-1.01-13.11-1-5.88-3.98-16.34 10.3-2.41 14.56-8.05 4.27-5.63 4.27-16.89zm-67.93-15.94q-6.2 3.87-9.01 7.65-4.19 5.63-8.37 18.83-4.43 13.92-11.11 43.05-7.81-30.26-15.45-46.75-7.32-15.78-15.93-21.81l-2.9 29.29q8.69 9.58 12.72 15.29 5.71 8.13 9.97 18.75 4.59 11.26 9.5 30.33h5.31q2.49-18.98 5.71-30.73 2.98-10.87 7.73-19.32 3.22-5.71 11.18-16.57zm-76.46 69.92q-7.08-6.76-9.01-11.58-2.41-6.2-2.41-21.25 0-16.81-0.73-22.69-0.72-5.87-3.94-10.46-2.9-4.18-10.3-4.19-9.58 0.01-17.18 11.79-7.6 11.79-7.6 26.52-0.01 6.84 5.51 11.3 5.51 4.47 13.96 4.47 4.26 0 11.59-1.93 0 9.66 1.24 18.67 1.25 9.01 4.15 14.88 3.46 7.09 8.93 8.61zm-21.73-40.07q-3.86 0.97-7.56 0.97-11.59 0-11.59-4.83 0-1.45 2.98-3.38 2.98-1.93 6.52-1.93 8.21 0 9.65 9.17zm452.56 265.93h-1.76-12.08l0.04 15.85q0.1 47.48-0.01 94.99c-39.41 0.27-78.83 0.35-118.25-0.08q-0.05-17.28-0.03-34.56l0.04-76.86h-6.53-3.67l0.09 59.42c0.04 25.4 0.28 50.82 0.12 76.22 47.35 0 94.69 0.04 142.04 0 0.04-44.99 0-89.99 0-134.98zm140.91 4.53q0.14 53.13 0.02 106.31c-39.41 0.27-78.83 0.35-118.25-0.08q-0.05-17.28-0.03-34.56l0.04-76.86h-6.53-3.66l0.08 59.42c0.04 25.4 0.28 50.82 0.12 76.22 47.35 0 94.7 0.04 142.04 0 0.04-45.1 0-90.21 0-135.31-3.44 0.15-10.4 0.46-13.85 0.62q0.01 2.12 0.02 4.24zm-167.17-5.05h-93.11v98.17h93.11zm157.22 0.12h-93.06v98.06h93.06zm-310.45 0h-68.28v98.06h68.28zm-79.99 111.15l-0.57-104.67-0.03-6.38h-0.72-4.05l-0.06 67.97c-0.02 22.49 0 44.99 0.56 67.47 37.17-0.31 74.38-0.08 111.59-0.12 0.11-32.32 0.05-64.65 0.04-96.97v-38.23l-9.95 0.12-4.52 0.06 0.01 10.64 0.12 99.94-18 0.04zm451.49-111.16h68.28v98.06h-68.28zm79.99 111.15l0.57-104.66 0.03-6.38h0.72 4.05l0.06 67.97c0.02 22.49 0 44.99-0.56 67.46-37.17-0.31-74.38-0.07-111.59-0.11-0.12-32.33-0.05-64.65-0.04-96.98v-38.22l9.95 0.12 4.52 0.06-0.01 10.64-0.13 99.94 18.01 0.03zm-209.46 114.95c-4.72 24.54-25.1 43.51-50.33 46.12 0.26 5.29 0.53 10.67 0.76 16.04 7.66 5.3 13.65 15.51 24.02 15.08 24.14 0.31 48.28-0.15 72.45 0-0.35-25.76 0.2-51.48-0.42-77.24q-10.35 0.16-20.7 0.19v-0.19zm-62.3 46.11c-25.2-2.63-45.55-21.59-50.27-46.11h-32.16v0.16q-7.12-0.05-14.23-0.16c-0.7 25.72-0.16 51.48-0.47 77.21 26.42 0.11 52.84-0.08 79.26 0.19 5.53-5.42 11.45-10.44 17.33-15.51q0.24-7.95 0.54-15.78zm12.18-124.56v10.56c28.15 3.01 50.21 26.4 51.13 55.13l48.95-0.2 6.92-13.27c9.03-17.32 18.45-34.45 26.58-52.22-39.79 0.74-79.65-0.61-119.42 0.38v-0.38zm-11.9 10.52v-10.52h-28.32v0.07c-36.4-0.18-72.8 0.17-109.2-0.07 11.99 22.24 24.99 43.94 37.18 66.11 10.61 0.2 21.2 0.17 31.8 0.13l16.98-0.07c0.69-29.09 23.05-52.82 51.56-55.65zm-232.48-197.87h19v-336.33h-19zm31.83 0h18.78c0.59-51.7 0.02-103.4 0.25-155.14 0.24-19.34-1.23-38.8 1.67-58.02-1.43-10.21-4.3-21.24 1.35-30.75 9.29-18.38 24.18-33.27 40.04-46.11 14.97 15.01 31.79 29.71 39.88 49.82 3.71 8.55 0.73 17.91 0.11 26.77 2.48 20.62 1.13 41.43 1.4 62.16 0.11 50.43-0.23 100.85 0.18 151.27h18.54c-0.19-112 0.08-224.01-0.16-336.05-40.57 0.04-81.19 0.19-121.8-0.08-0.47 112.02-0.01 224.08-0.24 336.13zm134.94 0h19.48v-336.48h-19.48zm-103.42 0h59.04c0-66.06 0.04-132.09 0-198.12q-9.76-0.1-19.46-0.15c9.52-9.24 22.05-19.53 19.77-34.47-5.53-16.16-17.91-28.77-30.45-39.88-10.56 12.3-23.63 23.79-28.54 39.77-2.67 14.81 9.98 25.34 19.42 34.62-6.54 0.11-13.08 0.11-19.58 0.19 1.28 54.31-1.12 108.62 0.54 162.97 0.23 11.67-0.42 23.37-0.74 35.07zm286.9-658.62c-18.8 32.8-36.87 65.99-55.59 98.79 58.8 0.54 117.56-0.08 176.35 0.31-17.02-33.62-35.08-66.77-53.96-99.37-22.28 0.46-44.52 0.19-66.8 0.27zm-295.58-25.03c1.51 4.22 3.14 8.43 4.72 12.69 22.21-0.12 44.41-0.08 66.65-0.08 1.63-4.14 3.33-8.24 4.99-12.38-25.45-0.27-50.9 0-76.36-0.23z"/>
	</g>
</svg>